<?xml version="1.0" standalone="no"?>
<!DOCTYPE svg PUBLIC "-//W3C//DTD SVG 1.1//EN" "http://www.w3.org/Graphics/SVG/1.1/DTD/svg11.dtd" >
<svg xmlns="http://www.w3.org/2000/svg">
<metadata>Generated by IcoMoon</metadata>
<defs>
<font id="muikku" horiz-adv-x="1024">
<font-face units-per-em="1024" ascent="960" descent="-64" />
<missing-glyph horiz-adv-x="1024" />
<glyph unicode="&#x20;" horiz-adv-x="512" d="" />
<glyph unicode="&#xe062;" glyph-name="record" d="M745.123 798.346c161.226-41.396 278.877-185.191 278.877-359.489s-117.651-318.094-278.877-359.489v95.864c108.936 37.038 185.191 141.617 185.191 263.626s-76.255 226.587-185.191 263.626v95.864zM0 438.857c0 204.8 167.762 372.562 372.562 372.562s372.562-167.762 372.562-372.562-167.762-372.562-372.562-372.562-372.562 167.762-372.562 372.562z" />
<glyph unicode="&#xe114;" glyph-name="plus" d="M512 877.714q18.172 0 31.028-12.858t12.858-31.028v-351.085h351.085q18.172 0 31.028-12.858t12.858-31.028-12.858-31.028-31.028-12.858h-351.085v-351.085q0-18.172-12.858-31.028t-31.028-12.858-31.028 12.858-12.858 31.028v351.085h-351.085q-18.172 0-31.028 12.858t-12.858 31.028 12.858 31.028 31.028 12.858h351.085v351.085q0 18.172 12.858 31.028t31.028 12.858z" />
<glyph unicode="&#xe15b;" glyph-name="minus" d="M1024 366.696h-1024v144.322h1024v-144.322z" />
<glyph unicode="&#xe321;" glyph-name="assessment-canceled" d="M512-0.001c242.374 0 438.858 196.482 438.858 438.858s-196.482 438.858-438.858 438.858-438.858-196.482-438.858-438.858 196.482-438.858 438.858-438.858zM512 795.429c196.928 0 356.572-159.642 356.572-356.572s-159.642-356.572-356.572-356.572-356.572 159.642-356.572 356.572 159.642 356.572 356.572 356.572zM292.572 603.429c0 30.296 24.56 54.858 54.858 54.858s54.858-24.56 54.858-54.858c0-30.296-24.56-54.858-54.858-54.858s-54.858 24.56-54.858 54.858zM621.714 603.429c0 30.296 24.56 54.858 54.858 54.858s54.858-24.56 54.858-54.858c0-30.296-24.56-54.858-54.858-54.858s-54.858 24.56-54.858 54.858zM676.656 340.063l70.566-42.34c-47.968-79.774-135.356-133.152-235.222-133.152s-187.254 53.378-235.222 133.152l70.566 42.34c33.578-55.842 94.75-93.206 164.656-93.206s131.078 37.364 164.656 93.206z" />
<glyph unicode="&#xe609;" glyph-name="navicon" d="M0.001 54.849v85.339q0 17.334 12.662 30.004t30.004 12.662h938.669q17.334 0 30.004-12.662t12.662-30.004v-85.339q0-17.334-12.662-30.004t-30.004-12.662h-938.669q-17.334 0-30.004 12.662t-12.662 30.004zM0.001 396.191v85.339q0 17.334 12.662 30.004t30.004 12.662h938.669q17.334 0 30.004-12.662t12.662-30.004v-85.339q0-17.334-12.662-30.004t-30.004-12.662h-938.669q-17.334 0-30.004 12.662t-12.662 30.004zM0.001 737.525v85.339q0 17.334 12.662 30.004t30.004 12.662h938.669q17.334 0 30.004-12.662t12.662-30.004v-85.339q0-17.334-12.662-30.004t-30.004-12.662h-938.669q-17.334 0-30.004 12.662t-12.662 30.004z" />
<glyph unicode="&#xe60b;" glyph-name="eye" d="M512 758.857c-223.318 0-416.882-130.042-512-320 95.118-189.958 288.682-320 512-320 223.314 0 416.878 130.042 512 320-95.116 189.958-288.686 320-512 320zM764.45 589.153c60.162-38.374 111.142-89.774 149.434-150.296-38.292-60.522-89.274-111.922-149.436-150.298-75.594-48.216-162.89-73.702-252.448-73.702-89.56 0-176.856 25.486-252.45 73.704-60.16 38.372-111.14 89.772-149.434 150.296 38.292 60.524 89.274 111.924 149.434 150.296 3.918 2.5 7.876 4.922 11.858 7.3-9.958-27.328-15.408-56.822-15.408-87.596 0-141.384 114.616-256 256-256s256 114.616 256 256c0 30.774-5.45 60.268-15.408 87.598 3.98-2.378 7.938-4.802 11.858-7.302zM512 540.857c0-53.020-42.98-96-96-96s-96 42.98-96 96 42.98 96 96 96 96-42.98 96-96z" />
<glyph unicode="&#xe60e;" glyph-name="attachment" d="M671.284 597.387l-55.674 55.648-278.408-278.35c-46.126-46.108-46.126-120.898 0-167.009 46.118-46.108 120.908-46.108 167.034 0l334.090 334.036c76.897 76.854 76.897 201.482 0 278.335-76.857 76.89-201.524 76.89-278.385 0l-350.768-350.724c-0.248-0.26-0.524-0.494-0.75-0.726-107.231-107.226-107.231-281.020 0-388.206 107.19-107.19 281.029-107.19 388.275 0 0.234 0.234 0.442 0.486 0.702 0.75l0.028-0.030 239.428 239.394-55.702 55.646-239.426-239.368c-0.254-0.231-0.484-0.488-0.726-0.724-76.349-76.336-200.554-76.336-276.922 0-76.338 76.321-76.338 200.504 0 276.838 0.26 0.26 0.518 0.498 0.762 0.726l-0.041 0.052 350.812 350.714c46.039 46.062 120.98 46.062 167.046 0 46.039-46.058 46.039-120.984 0-167.006l-334.090-334.028c-15.373-15.362-40.333-15.362-55.69 0-15.338 15.33-15.338 40.314 0 55.646l278.406 278.385z" />
<glyph unicode="&#xe613;" glyph-name="pin" d="M453.485 292.571l58.515-292.571 58.515 292.571c-18.285-1.829-39.315-2.742-58.515-2.742s-40.229 0.915-58.515 2.742zM685.715 565.943c-30.172 15.543-56.685 53.943-56.685 77.715v58.515c0 20.115 10.972 35.658 21.029 47.543 13.714 11.886 21.942 26.514 21.942 41.142 0 48.457-55.771 86.857-160.001 86.857s-160.001-38.4-160.001-86.857c0-14.629 8.228-29.257 21.942-41.142 10.057-11.886 21.029-27.428 21.029-47.543v-58.515c0-23.771-26.514-62.171-56.685-77.715-34.743-17.371-64.001-49.372-64.001-80.457 0-67.657 92.343-135.315 237.714-135.315s237.714 66.743 237.714 135.315c0 30.172-28.343 62.171-64.001 80.457z" />
<glyph unicode="&#xe617;" glyph-name="move" d="M950.858 438.857q0-12.735-9.306-22.040l-125.388-125.388q-9.306-9.306-22.040-9.306t-22.040 9.306-9.306 22.040v62.694h-188.082v-188.082h62.694q12.735 0 22.040-9.306t9.306-22.040-9.306-22.040l-125.388-125.388q-9.306-9.306-22.040-9.306t-22.040 9.306l-125.388 125.388q-9.306 9.306-9.306 22.040t9.306 22.040 22.040 9.306h62.694v188.082h-188.082v-62.694q0-12.735-9.306-22.040t-22.040-9.306-22.040 9.306l-125.388 125.388q-9.306 9.306-9.306 22.040t9.306 22.040l125.388 125.388q9.306 9.306 22.040 9.306t22.040-9.306 9.306-22.040v-62.694h188.082v188.082h-62.694q-12.735 0-22.040 9.306t-9.306 22.040 9.306 22.040l125.388 125.388q9.306 9.306 22.040 9.306t22.040-9.306l125.388-125.388q9.306-9.306 9.306-22.040t-9.306-22.040-22.040-9.306h-62.694v-188.082h188.082v62.694q0 12.735 9.306 22.040t22.040 9.306 22.040-9.306l125.388-125.388q9.306-9.306 9.306-22.040z" />
<glyph unicode="&#xe61c;" glyph-name="search" d="M680.789 506.375q0 97.583-69.364 166.944t-166.944 69.364-166.944-69.364-69.364-166.944 69.364-166.944 166.944-69.364 166.944 69.364 69.364 166.944zM950.857 67.516q0-27.428-20.045-47.473t-47.473-20.045q-28.482 0-47.473 20.045l-180.923 180.397q-94.418-65.406-210.462-65.406-75.428 0-144.263 29.274t-118.681 79.122-79.122 118.681-29.274 144.263 29.274 144.263 79.122 118.681 118.681 79.122 144.263 29.274 144.263-29.274 118.681-79.122 79.122-118.681 29.274-144.263q0-116.045-65.406-210.462l180.923-180.923q19.518-19.518 19.518-47.473z" />
<glyph unicode="&#xe61d;" glyph-name="cogs" d="M480.524 439.101q0 52.129-36.884 89.016t-89.016 36.884-89.016-36.884-36.884-89.016 36.884-89.016 89.016-36.884 89.016 36.884 36.884 89.016zM858.225 187.302q0 25.573-18.688 44.263t-44.263 18.688-44.263-18.688-18.688-44.263q0-26.066 18.443-44.507t44.507-18.443 44.507 18.443 18.443 44.507zM858.225 690.901q0 25.573-18.688 44.263t-44.263 18.688-44.263-18.688-18.688-44.263q0-26.066 18.443-44.507t44.507-18.443 44.507 18.443 18.443 44.507zM669.376 483.855v-90.982q0-4.918-3.442-9.591t-7.869-5.164l-76.228-11.803q-5.41-17.213-15.738-37.377 16.722-23.607 44.263-56.556 3.442-4.918 3.442-9.836 0-5.901-3.442-9.344-11.312-14.755-40.573-44.017t-38.606-29.262q-5.41 0-10.328 3.442l-56.556 44.263q-18.197-9.344-37.869-15.245-5.41-53.114-11.312-76.228-3.442-11.803-14.755-11.803h-91.474q-5.41 0-9.836 3.688t-4.918 8.606l-11.312 75.246q-16.722 4.918-36.884 15.245l-58.033-43.769q-3.442-3.442-9.836-3.442-5.41 0-10.328 3.934-70.819 65.409-70.819 78.688 0 4.427 3.442 9.344 4.918 6.885 20.164 26.066t23.114 29.999q-11.312 21.639-17.213 40.327l-74.753 11.803q-4.918 0.491-8.361 4.672t-3.442 9.591v90.982q0 4.918 3.442 9.591t7.869 5.164l76.228 11.803q5.41 17.213 15.738 37.377-16.722 23.607-44.263 56.556-3.442 5.41-3.442 9.836 0 5.901 3.442 9.836 10.819 14.755 40.327 43.769t38.853 29.015q5.41 0 10.328-3.442l56.556-44.263q16.722 8.852 37.869 15.738 5.41 53.114 11.312 75.737 3.442 11.803 14.755 11.803h91.474q5.41 0 9.836-3.688t4.918-8.606l11.312-75.246q16.722-4.918 36.884-15.245l58.033 43.769q3.934 3.442 9.836 3.442 5.41 0 10.328-3.934 70.819-65.409 70.819-78.688 0-4.427-3.442-9.344-5.901-7.869-20.656-26.556t-22.131-29.508q11.312-23.607 16.722-40.327l74.753-11.312q4.918-0.984 8.361-5.164t3.442-9.591zM984.125 221.728v-68.851q0-7.869-73.278-15.245-5.901-13.279-14.755-25.573 25.083-55.573 25.083-67.867 0-1.967-1.967-3.442-59.999-34.917-60.983-34.917-3.934 0-22.622 23.114t-25.573 33.442q-9.836-0.984-14.755-0.984t-14.755 0.984q-6.885-10.328-25.573-33.442t-22.622-23.114q-0.984 0-60.983 34.917-1.967 1.475-1.967 3.442 0 12.295 25.083 67.867-8.852 12.295-14.755 25.573-73.278 7.376-73.278 15.245v68.851q0 7.869 73.278 15.245 6.394 14.262 14.755 25.573-25.083 55.573-25.083 67.867 0 1.967 1.967 3.442 1.967 0.984 17.213 9.836t29.015 16.722 14.755 7.869q3.934 0 22.622-22.868t25.573-33.195q9.836 0.984 14.755 0.984t14.755-0.984q25.083 34.917 45.245 55.081l2.952 0.984q1.967 0 60.983-34.426 1.967-1.475 1.967-3.442 0-12.295-25.083-67.867 8.361-11.312 14.755-25.573 73.278-7.376 73.278-15.245zM984.125 725.326v-68.851q0-7.869-73.278-15.245-5.901-13.279-14.755-25.573 25.083-55.573 25.083-67.867 0-1.967-1.967-3.442-59.999-34.917-60.983-34.917-3.934 0-22.622 23.114t-25.573 33.442q-9.836-0.984-14.755-0.984t-14.755 0.984q-6.885-10.328-25.573-33.442t-22.622-23.114q-0.984 0-60.983 34.917-1.967 1.475-1.967 3.442 0 12.295 25.083 67.867-8.852 12.295-14.755 25.573-73.278 7.376-73.278 15.245v68.851q0 7.869 73.278 15.245 6.394 14.262 14.755 25.573-25.083 55.573-25.083 67.867 0 1.967 1.967 3.442 1.967 0.984 17.213 9.836t29.015 16.722 14.755 7.869q3.934 0 22.622-22.868t25.573-33.195q9.836 0.984 14.755 0.984t14.755-0.984q25.083 34.917 45.245 55.081l2.952 0.984q1.967 0 60.983-34.426 1.967-1.475 1.967-3.442 0-12.295-25.083-67.867 8.361-11.312 14.755-25.573 73.278-7.376 73.278-15.245z" />
<glyph unicode="&#xe62b;" glyph-name="star-full" d="M985.653 540.476q0-12.524-14.801-27.327l-206.656-201.532 48.96-284.649q0.569-3.985 0.569-11.387 0-11.955-5.978-20.21t-17.364-8.255q-10.816 0-22.772 6.831l-255.614 134.354-255.614-134.354q-12.524-6.831-22.772-6.831-11.955 0-17.933 8.255t-5.978 20.21q0 3.416 1.139 11.387l48.96 284.649-207.225 201.532q-14.233 15.373-14.233 27.327 0 21.065 31.881 26.188l285.787 41.56 128.091 259.031q10.816 23.342 27.896 23.342t27.896-23.342l128.091-259.031 285.787-41.56q31.881-5.124 31.881-26.188z" />
<glyph unicode="&#xe62c;" glyph-name="star-empty" d="M685.635 337.236l174.205 169.082-240.245 35.297-107.597 217.472-107.597-217.472-240.245-35.297 174.205-169.082-41.559-239.674 215.195 113.29 214.626-113.29zM985.654 540.475q0-12.524-14.801-27.327l-206.656-201.532 48.96-284.649q0.569-3.985 0.569-11.387 0-28.465-23.342-28.465-10.816 0-22.771 6.831l-255.614 134.354-255.614-134.354q-12.524-6.831-22.771-6.831-11.955 0-17.933 8.255t-5.978 20.21q0 3.416 1.139 11.387l48.96 284.649-207.225 201.532q-14.233 15.372-14.233 27.327 0 21.065 31.881 26.188l285.787 41.559 128.091 259.031q10.816 23.342 27.896 23.342t27.896-23.342l128.091-259.031 285.787-41.559q31.881-5.124 31.881-26.188z" />
<glyph unicode="&#xe62d;" glyph-name="clock" d="M512-0.001q-89.057 0-170.406 34.68t-140.006 93.338-93.338 140.006-34.68 170.406 34.68 170.406 93.338 140.006 140.006 93.765 170.406 35.108 170.406-35.108 140.006-93.765 93.338-140.006 34.68-170.406-34.68-170.406-93.338-140.006-140.006-93.338-170.406-34.68zM512 767.251q-89.057 0-164.838-43.672t-119.883-119.454-44.1-165.268 44.1-165.268 119.883-119.883 164.838-44.1 164.838 44.1 119.883 119.883 44.1 165.268-44.1 165.268-119.883 119.454-164.838 43.672zM676.411 575.437l-112.176-151.566q-4.281-17.126-18.839-28.686t-33.396-11.561q-17.982 0-32.539 11.131t-19.696 27.402l-166.98 208.083v27.402h27.402l192.668-154.991 136.153 100.188h27.402v-27.402z" />
<glyph unicode="&#xe634;" glyph-name="puzzle" d="M431.515 650.405l0.384-0.53c8.228-6.583 13.33-16.822 13.33-28.159 0-20.115-16.274-36.57-36.57-36.57l-207.342-0.002c-40.411 0-73.144-32.73-73.144-73.144v-141.185c0-20.115 16.458-36.57 36.57-36.57 11.154 0 21.029 4.956 27.812 12.818 1.262 1.462 5.67 6.034 6.564 6.93 19.732 18.67 46.266 30.006 75.34 30.006 60.545 0 109.714-49.17 109.714-109.714s-49.17-109.714-109.714-109.714c-29.258 0-55.954 11.52-75.702 30.172-0.732 0.714-5.12 4.938-6.217 6.564-6.766 7.863-16.822 12.982-28.159 12.982-20.132 0-36.57-16.458-36.57-36.57l0.366-104.574c0-40.411 32.73-73.144 73.144-73.144h621.714c40.411 0 73.144 32.73 73.144 73.144v159.45c0 20.115-16.458 36.57-36.57 36.57-10.258 0-19.566-4.188-26.313-11.154l-7.149-7.68c-19.77-19.198-46.63-30.902-76.254-30.902-60.545 0-109.714 49.17-109.714 109.714s49.17 109.714 109.714 109.714c29.805 0 56.686-11.886 76.434-31.086l5.686-6.034c6.766-7.68 16.639-12.618 27.612-12.618 20.115 0 36.57 16.458 36.57 36.57v86.31c0 40.411-32.73 73.144-73.144 73.144h-207.726c-20.115 0-36.57 16.458-36.57 36.57 0 10.258 4.206 19.548 11.154 26.313 30.498 23.24 50.266 60.178 50.266 101.687 0 70.766-57.234 127.999-127.999 127.999s-127.999-57.234-127.999-127.999c0.002-40.026 18.45-75.884 47.344-99.308z" />
<glyph unicode="&#xe635;" glyph-name="question" d="M711.434 817.542c-55.637 40.132-125.414 60.172-209.478 60.172-63.975 0-117.906-14.142-161.742-42.326-69.582-44.178-106.543-119.173-111.030-224.985h161.205c0 30.817 8.972 60.512 26.966 89.087s48.518 42.861 91.575 42.861c43.738 0 73.923-11.606 90.403-34.768 16.53-23.259 24.772-48.956 24.772-77.141 0-24.527-12.287-46.958-27.112-67.387-8.142-11.898-18.919-22.82-32.231-32.865 0 0-87.429-56.076-125.853-101.131-22.284-26.136-24.283-65.243-26.234-121.367-0.147-3.998 1.365-12.239 15.36-12.239s112.98 0 125.414 0 15.018 9.216 15.213 13.263c0.878 20.43 3.17 30.867 6.924 42.666 7.071 22.284 26.185 41.74 47.738 58.465l44.372 30.622c40.033 31.207 72.020 56.807 86.113 76.897 24.089 33.061 41.009 73.727 41.009 121.952 0 78.75-27.843 138.141-83.382 178.223zM499.37 198.759c-55.589 1.658-101.424-36.766-103.18-97.036-1.756-60.221 41.838-100.010 97.425-101.668 58.026-1.707 102.642 35.499 104.398 95.718 1.707 60.27-40.618 101.277-98.646 102.984z" />
<glyph unicode="&#xe637;" glyph-name="restriction" d="M431.699 82.169v78.434c-42.953 0-78.434 35.482-78.434 78.434v41.084l-192.351 190.482c-5.602-22.41-7.47-46.686-7.47-70.963 0-162.471 121.386-298.796 278.254-317.471zM788.387 438.857h80.301c1.867-13.073 1.867-26.144 1.867-39.217 0-220.362-177.411-399.641-397.772-399.641s-399.641 179.277-399.641 399.641 179.277 397.772 399.641 397.772c41.084 0 82.17-7.47 119.518-18.675v-100.843c0-42.953-37.35-80.301-80.301-80.301h-80.301v-78.434c0-22.41-16.807-41.084-39.217-41.084h-80.301v-78.434h239.037c22.41 0 41.084-18.675 41.084-41.084v-119.518h39.217c35.482 0 65.361-22.41 76.566-54.157 52.29 56.024 82.17 132.591 82.17 214.759 0 13.073 0 26.144-1.867 39.217zM878.026 758.195v18.675c0 37.35-29.88 69.097-67.23 69.097s-67.23-31.746-67.23-69.097v-18.675h134.458zM909.772 758.195c22.41 0 41.084-18.675 41.084-41.084v-158.735c0-22.41-18.675-39.217-41.084-39.217h-197.953c-22.41 0-41.084 16.807-41.084 39.217v158.735c0 22.41 18.675 41.084 41.084 41.084v18.675c0 54.157 44.819 100.843 98.976 100.843s98.976-46.686 98.976-100.843v-18.675z" />
<glyph unicode="&#xe639;" glyph-name="check" d="M422.85 73.142c-22.728 0-44.255 10.606-58.048 28.895l-186.685 246.666c-24.295 32.029-17.975 77.642 14.106 101.937 32.134 24.4 77.746 17.975 102.044-14.106l122.836-162.181 308.845 495.946c21.265 34.065 66.199 44.515 100.37 23.251 34.119-21.214 44.621-66.146 23.304-100.317l-364.906-585.711c-12.645-20.429-34.535-33.177-58.518-34.275-1.149-0.105-2.195-0.105-3.345-0.105z" />
<glyph unicode="&#xe63d;" glyph-name="evaluate" d="M910.785 837.635c-53.748 53.748-101.546 37.897-101.546 37.897l-421.354-421.013-70.867-210.654 210.555 70.917 421.11 421.305c0 0 15.803 47.798-37.897 101.546zM541.618 360.68l-22.972-22.924-71.843-24.387c-5.073 11.706-11.414 23.264-24.29 36.092-12.877 12.877-24.387 19.218-36.092 24.29l24.387 71.843 22.972 22.924c0 0 37.848 4.341 74.965-32.826 37.165-37.116 32.874-75.014 32.874-75.014zM804.751 97.547h-634.054v634.054h243.868l97.547 97.547h-341.414c-53.651 0-97.547-43.896-97.547-97.547v-634.054c0-53.651 43.896-97.547 97.547-97.547h634.054c53.651 0 97.547 43.896 97.547 97.547v341.414l-97.547-97.547v-243.868z" />
<glyph unicode="&#xe900;" glyph-name="envelope" d="M93.091 628.715l392.238-274.572c15.826-10.939 37.004-11.45 53.388 0l392.191 274.572v-469.131c0-12.66-5.12-24.25-13.731-32.815s-20.155-13.731-32.815-13.731h-744.727c-12.66 0-24.25 5.12-32.815 13.731s-13.731 20.155-13.731 32.815zM0 717.571v-557.987c0-38.54 15.826-73.496 40.96-98.676s60.136-40.96 98.676-40.96h744.727c38.54 0 73.496 15.826 98.676 40.96s40.96 60.136 40.96 98.676v557.987c0 0.466 0 0.931 0 1.396-0.232 38.213-15.965 72.843-40.96 97.838-25.181 25.135-60.136 40.96-98.676 40.96h-744.727c-38.54 0-73.496-15.826-98.676-40.96-24.995-24.995-40.727-59.625-40.96-97.885 0-0.232 0-0.512 0-0.791zM925.974 738.889l-413.975-289.745-413.975 289.745c2.234 4.468 5.213 8.518 8.75 12.056 8.611 8.611 20.2 13.731 32.861 13.731h744.727c12.66 0 24.25-5.12 32.815-13.731 3.538-3.538 6.516-7.633 8.75-12.056z" />
<glyph unicode="&#xe901;" glyph-name="home" d="M983.689 351.38l-471.689 366.135-471.689-366.137v149.28l471.689 366.135 471.689-366.137zM865.766 364.687v-353.766h-235.844v235.844h-235.844v-235.844h-235.844v353.766l353.766 265.324z" />
<glyph unicode="&#xe902;" glyph-name="flag" d="M856.994 806.627c-20.214 8.377-43.456 3.729-58.914-11.73-68.319-68.263-179.497-68.319-247.867 0-110.529 110.422-290.242 110.422-400.72 0-10.16-10.108-15.835-23.89-15.835-38.213v-702.636c0-29.835 24.161-54.050 54.050-54.050s54.050 24.214 54.050 54.050v246.084c68.695 53.886 168.688 49.238 232.032-14.052 110.529-110.422 290.298-110.422 400.72 0 10.16 10.16 15.835 23.89 15.835 38.213v432.39c0 21.89-13.188 41.563-33.348 49.941z" />
<glyph unicode="&#xe903;" glyph-name="chat" d="M41.75 270.467c0-44.223 35.818-80.043 80.043-80.043h120.063v-123.464c0-22.212 18.009-40.021 40.021-40.021 11.226 0 21.392 4.601 28.615 12.006l151.481 151.479h440.234c44.223 0 80.043 35.818 80.043 80.043l-0.002 500.266c0 44.223-35.818 80.043-80.043 80.043l-780.412-0.002c-44.225 0-80.043-35.818-80.043-80.041v-500.266zM281.877 500.589c0 27.614 22.412 50.027 50.027 50.027s50.027-22.412 50.027-50.027-22.412-50.027-50.027-50.027-50.027 22.412-50.027 50.027zM461.973 500.589c0 27.614 22.412 50.027 50.027 50.027s50.027-22.412 50.027-50.027-22.412-50.027-50.027-50.027-50.027 22.412-50.027 50.027zM642.068 500.589c0 27.614 22.412 50.027 50.027 50.027s50.027-22.412 50.027-50.027-22.412-50.027-50.027-50.027-50.027 22.412-50.027 50.027z" />
<glyph unicode="&#xe904;" glyph-name="more_vert" d="M512 232.499q41.272 0 72.832-31.56t31.56-72.832-31.56-72.832-72.832-31.56-72.832 31.56-31.56 72.832 31.56 72.832 72.832 31.56zM512 543.249q41.272 0 72.832-31.56t31.56-72.832-31.56-72.832-72.832-31.56-72.832 31.56-31.56 72.832 31.56 72.832 72.832 31.56zM512 645.215q-41.272 0-72.832 31.56t-31.56 72.832 31.56 72.832 72.832 31.56 72.832-31.56 31.56-72.832-31.56-72.832-72.832-31.56z" />
<glyph unicode="&#xe905;" glyph-name="cross" d="M950.857 789.347l-350.49-350.49 350.49-350.49-88.365-88.365-350.49 350.49-350.49-350.49-88.365 88.365 350.49 350.49-350.49 350.49 88.365 88.365 350.49-350.49 350.49 350.49z" />
<glyph unicode="&#xe906;" glyph-name="error" d="M942.853 172.577c-0.004 0.004-0.007 0.007-0.011 0.009l-266.266 266.272 266.266 266.272c0.004 0.004 0.007 0.006 0.011 0.009 2.866 2.868 4.939 6.217 6.267 9.786 3.64 9.75 1.563 21.156-6.278 28.997l-125.782 125.782c-7.841 7.839-19.242 9.914-28.995 6.274-3.567-1.328-6.918-3.402-9.787-6.267 0-0.004-0.004-0.006-0.007-0.009l-266.27-266.274-266.27 266.272c-0.004 0.004-0.006 0.006-0.009 0.009-2.868 2.864-6.217 4.938-9.784 6.267-9.754 3.642-21.156 1.566-28.997-6.274l-125.784-125.784c-7.841-7.841-9.916-19.243-6.276-28.995 1.331-3.567 3.402-6.918 6.267-9.786 0.004-0.002 0.006-0.006 0.009-0.009l266.272-266.27-266.272-266.274c-0.002-0.004-0.006-0.006-0.007-0.009-2.864-2.868-4.938-6.217-6.269-9.784-3.642-9.75-1.566-21.156 6.276-28.997l125.784-125.782c7.842-7.841 19.243-9.916 28.997-6.276 3.567 1.331 6.918 3.402 9.786 6.267 0.002 0.004 0.006 0.006 0.009 0.009l266.27 266.272 266.27-266.272c0.004-0.002 0.007-0.006 0.011-0.007 2.87-2.866 6.217-4.939 9.784-6.269 9.752-3.64 21.158-1.566 28.995 6.276l125.782 125.784c7.841 7.841 9.918 19.245 6.278 28.997-1.331 3.567-3.402 6.916-6.269 9.784z" />
<glyph unicode="&#xe907;" glyph-name="copyright" d="M512 86.535c193.674 0 352.322 158.647 352.322 352.322s-158.647 352.322-352.322 352.322-352.322-158.647-352.322-352.322 158.647-352.322 352.322-352.322zM512 877.715c243.123 0 438.858-195.735 438.858-438.858s-195.735-438.858-438.858-438.858-438.858 195.735-438.858 438.858 195.735 438.858 438.858 438.858zM505.819 564.539c-63.378 0-82.414-56.101-82.414-119.502v-12.363c0-63.395 19.066-119.502 82.414-119.502 38.692 0 72.113 23.617 72.113 61.811h78.294c0-40.22-21.775-70.469-45.329-90.655-26.564-22.77-57.495-37.086-105.078-37.086-112.464 0-168.95 74.324-168.95 185.432v12.363c0 53.274 14.958 101.865 41.207 131.862 27.195 31.079 70.758 55.629 127.743 55.629 45.61 0 83.708-15.716 107.139-39.147 22.669-22.669 43.267-57.664 43.267-100.958h-78.294c0 10.302-2.060 18.544-6.181 26.785s-8.241 18.544-14.422 24.725c-11.162 11.162-30.238 20.604-51.51 20.604z" />
<glyph unicode="&#xe908;" glyph-name="tag" d="M868.408 877.714h-247.338c-45.349 0-108.683-26.233-140.746-58.298l-383.132-383.132c-32.065-32.065-32.065-84.534 0-116.599l295.636-295.634c32.065-32.067 84.534-32.067 116.598 0l383.132 383.131c32.065 32.067 58.298 95.402 58.298 140.746v247.338c0 45.347-37.103 82.446-82.446 82.446zM758.857 603.429c-45.446 0-82.286 36.84-82.286 82.286s36.84 82.286 82.286 82.286 82.286-36.84 82.286-82.286-36.84-82.286-82.286-82.286z" />
<glyph unicode="&#xe909;" glyph-name="spinner" d="M237.892 440.559c0 10.434 0.603 20.726 1.738 30.856l-158.452 51.484c-5.068-26.674-7.752-54.191-7.752-82.34 0-126.116 53.25-239.778 138.47-319.784l97.894 134.738c-44.648 48.762-71.9 113.718-71.9 185.046zM786.108 440.559c0-71.326-27.25-136.284-71.9-185.046l97.894-134.738c85.22 80.006 138.47 193.669 138.47 319.784 0 28.15-2.682 55.666-7.75 82.34l-158.452-51.484c1.134-10.132 1.738-20.422 1.738-30.856zM566.822 709.179c78.75-15.986 145.229-65.736 183.694-133.478l158.45 51.482c-62.698 133.13-190.368 229.616-342.144 248.544v-166.548zM273.484 575.701c38.466 67.742 104.946 117.492 183.694 133.478v166.546c-151.776-18.928-279.444-115.413-342.142-248.542l158.448-51.482zM625.546 191.013c-34.598-15.768-73.042-24.56-113.546-24.56s-78.948 8.792-113.544 24.558l-97.901-134.75c62.708-34.577 134.772-54.274 211.444-54.274s148.738 19.696 211.446 54.274l-97.901 134.752z" />
<glyph unicode="&#xe90a;" glyph-name="share" d="M813.713 274.285c-38.708 0-73.646-16.061-98.582-41.854l-369.43 184.716c1.126 7.074 1.728 14.32 1.728 21.71s-0.602 14.635-1.728 21.709l369.43 184.716c24.936-25.793 59.874-41.852 98.582-41.852 75.743 0 137.142 61.399 137.142 137.142s-61.399 137.142-137.142 137.142-137.142-61.399-137.142-137.142c0-7.391 0.604-14.635 1.728-21.709l-369.43-184.717c-24.936 25.793-59.874 41.854-98.582 41.854-75.743 0-137.142-61.401-137.142-137.142 0-75.744 61.399-137.142 137.142-137.142 38.708 0 73.646 16.061 98.582 41.852l369.43-184.716c-1.124-7.072-1.728-14.318-1.728-21.709 0-75.744 61.399-137.142 137.142-137.142s137.142 61.398 137.142 137.142c0 75.741-61.399 137.142-137.142 137.142z" />
<glyph unicode="&#xe90b;" glyph-name="stop" d="M512 877.715c-242.373 0-438.858-196.483-438.858-438.858s196.483-438.858 438.858-438.858 438.858 196.483 438.858 438.858-196.483 438.858-438.858 438.858zM512 82.285c-196.927 0-356.572 159.643-356.572 356.572s159.643 356.572 356.572 356.572 356.572-159.643 356.572-356.572-159.643-356.572-356.572-356.572zM347.428 603.429h329.142v-329.142h-329.142z" />
<glyph unicode="&#xe90c;" glyph-name="coin-euro" d="M512 877.715c-242.373 0-438.858-196.483-438.858-438.858s196.483-438.858 438.858-438.858c242.375 0 438.858 196.482 438.858 438.858s-196.482 438.858-438.858 438.858zM512 87.771c-193.901 0-351.086 157.185-351.086 351.086s157.185 351.086 351.086 351.086c193.898 0 351.086-157.185 351.086-351.086s-157.188-351.086-351.086-351.086zM686.468 347.118c-13.962 8.122-31.874 3.39-40.001-10.578-15.776-27.119-44.881-43.968-75.954-43.968h-117.029c-38.141 0-70.662 24.462-82.739 58.515h141.254c16.158 0 29.257 13.098 29.257 29.257s-13.099 29.257-29.257 29.257h-146.286v58.515h146.286c16.158 0 29.257 13.099 29.257 29.257s-13.099 29.257-29.257 29.257h-141.254c12.078 34.053 44.598 58.515 82.739 58.515h117.029c31.074 0 60.176-16.846 75.954-43.968 8.127-13.966 26.037-18.702 40.002-10.577 13.966 8.127 18.702 26.034 10.577 40.002-26.214 45.064-74.699 73.057-126.532 73.057h-117.029c-70.645 0-129.75-50.336-143.342-117.029h-32.202c-16.158 0-29.257-13.099-29.257-29.257s13.099-29.257 29.257-29.257h29.257v-58.515h-29.257c-16.158 0-29.257-13.098-29.257-29.257s13.099-29.257 29.257-29.257h32.202c13.591-66.691 72.697-117.029 143.342-117.029h117.029c51.833 0 100.315 27.995 126.532 73.061 8.127 13.966 3.39 31.876-10.578 40.001z" />
<glyph unicode="&#xe90d;" glyph-name="sort-desc" d="M327.963 198.193v679.52h-113.253v-679.52h-141.567l198.193-198.193 198.193 198.193h-141.567zM441.218 877.714h509.64v-113.253h-509.64v113.253zM441.218 707.833h396.387v-113.253h-396.387v113.253zM441.218 537.954h283.134v-113.253h-283.134v113.253zM441.218 368.075h169.879v-113.253h-169.879v113.253z" />
<glyph unicode="&#xe90e;" glyph-name="sort-asc" d="M327.963 198.193v679.52h-113.253v-679.52h-141.568l198.194-198.194 198.194 198.194h-141.568zM441.218 368.075h509.64v-113.253h-509.64v113.253zM441.218 537.954h396.387v-113.253h-396.387v113.253zM441.218 707.834h283.134v-113.253h-283.134v113.253zM441.218 877.715h169.879v-113.253h-169.879v113.253z" />
<glyph unicode="&#xe90f;" glyph-name="lock-open" d="M497.844 228.923v0 0c-16.495 5.829-28.314 21.561-28.314 40.054 0 23.455 19.014 42.471 42.471 42.471s42.471-19.014 42.471-42.471c0-18.492-11.818-34.222-28.314-40.054v-73.455c0-7.449-6.338-13.902-14.156-13.902-7.59 0-14.156 6.224-14.156 13.902v73.455zM724.35 637.050v28.335c0 117.267-95.31 212.33-212.35 212.33-117.278 0-212.35-95.040-212.35-212.33v-212.372c-46.934-0.133-84.941-37.927-84.941-85.207v-282.596c0-47.058 38.098-85.207 85.189-85.207h424.204c47.049 0 85.189 37.844 85.189 85.207v282.596c0 46.975-37.963 85.074-84.941 85.207h-338.982c-0.513 4.644-0.778 9.363-0.778 14.142v198.223c0 70.479 57.042 127.395 127.41 127.395 70.224 0 127.41-57.037 127.41-127.395v-102.622c0-29.334 18.852-53.117 42.471-53.117 23.455 0 42.471 24.015 42.471 53.117v74.293z" />
<glyph unicode="&#xe910;" glyph-name="lock" d="M495.746 262.836v0c-18.939 6.693-32.507 24.756-32.507 45.988 0 26.932 21.832 48.762 48.762 48.762s48.762-21.832 48.762-48.762c0-21.232-13.568-39.294-32.507-45.988v-84.337c0-8.554-7.278-15.962-16.254-15.962-8.714 0-16.254 7.146-16.254 15.962v84.337zM268.191 520.127v0 0c-53.886-0.152-97.524-43.546-97.524-97.831v-324.461c0-54.031 43.744-97.831 97.809-97.831h487.048c54.018 0 97.809 43.45 97.809 97.831v324.461c0 53.935-43.588 97.676-97.524 97.831v113.802c0 134.638-109.431 243.785-243.809 243.785-134.651 0-243.809-109.121-243.809-243.785v-113.802zM365.714 520.127v113.75c0 80.996 65.495 146.312 146.286 146.312 80.627 0 146.286-65.505 146.286-146.312v-113.75h-292.571z" />
<glyph unicode="&#xe911;" glyph-name="sort-alpha-desc" d="M333.712 219.433v658.279h-109.714v-658.279h-137.142l191.999-191.999 191.999 191.999h-137.142zM854.851 493.717h-219.426c-10.114 0-19.41 5.568-24.183 14.485-4.77 8.919-4.251 19.739 1.363 28.158l190.998 286.498h-168.176c-15.147 0-27.427 12.281-27.427 27.427s12.281 27.427 27.427 27.427h219.426c10.114 0 19.41-5.568 24.183-14.485 4.77-8.919 4.251-19.739-1.363-28.158l-190.996-286.498h168.175c15.147 0 27.427-12.281 27.427-27.427s-12.281-27.427-27.427-27.427zM934.24 39.701l-164.572 329.141c-4.645 9.294-14.145 15.163-24.534 15.163s-19.888-5.87-24.534-15.163l-164.567-329.141c-6.774-13.547-1.281-30.025 12.266-36.798 3.938-1.969 8.122-2.903 12.246-2.903 10.060 0 19.747 5.557 24.552 15.169l47.278 94.551h185.525l47.276-94.551c6.774-13.547 23.25-19.038 36.798-12.266 13.547 6.774 19.040 23.25 12.266 36.797zM679.805 164.577l65.332 130.667 65.335-130.667h-130.667z" />
<glyph unicode="&#xe912;" glyph-name="sort-alpha-asc" d="M333.712 219.428v658.283h-109.713v-658.283h-137.142l191.999-191.999 191.999 191.999h-137.142zM854.853-0.001h-219.427c-10.113 0-19.409 5.568-24.183 14.486-4.77 8.918-4.25 19.739 1.362 28.157l190.998 286.499h-168.178c-15.148 0-27.428 12.281-27.428 27.428s12.281 27.428 27.428 27.428h219.427c10.113 0 19.409-5.568 24.183-14.486 4.77-8.918 4.25-19.739-1.362-28.157l-190.998-286.499h168.176c15.148 0 27.428-12.281 27.428-27.428s-12.281-27.428-27.428-27.428zM934.244 533.411l-164.573 329.142c-4.647 9.294-14.143 15.162-24.534 15.162s-19.888-5.87-24.534-15.162l-164.567-329.142c-6.774-13.548-1.281-30.025 12.266-36.798 3.937-1.967 8.122-2.902 12.246-2.902 10.059 0 19.748 5.557 24.552 15.17l47.275 94.552h185.525l47.275-94.552c6.774-13.548 23.249-19.038 36.798-12.266 13.55 6.774 19.042 23.249 12.268 36.797zM679.806 658.286l65.331 130.667 65.334-130.667h-130.665z" />
<glyph unicode="&#xe913;" glyph-name="archive" d="M832.002 886.858h-640.001l-192.001-192.001v-672.001c0-17.674 14.325-32 32-32h960.001c17.672 0 32 14.325 32 32v672.001l-192.001 192.001zM512.002 118.858l-319.999 256h192.001v192.001h256v-192.001h192.001l-319.999-256zM154.512 758.856l63.999 63.999h586.979l63.999-63.999h-714.979z" />
<glyph unicode="&#xe914;" glyph-name="unarchive" d="M831.999 886.857h-639.999l-192-192v-672c0-17.674 14.325-32 32-32h960c17.672 0 32 14.325 32 32v672l-192 192zM640.001 310.856v-192h-256v192h-192l319.999 256 319.999-256h-192zM154.511 758.855l63.999 63.999h586.977l63.999-63.999h-714.976z" />
<glyph unicode="&#xe915;" glyph-name="copy" d="M809.862 80.302v558.376h-436.989v-558.376h436.989zM809.862 717.111c42.953 0 80.301-35.482 80.301-78.434v-558.376c0-42.953-37.35-80.301-80.301-80.301h-436.989c-42.953 0-80.301 37.35-80.301 80.301v558.376c0 42.953 37.35 78.434 80.301 78.434h436.989zM690.344 877.715v-80.301h-478.074v-558.376h-78.434v558.376c0 42.953 35.482 80.301 78.434 80.301h478.074z" />
<glyph unicode="&#xe916;" glyph-name="paste" d="M790.847 78.602v640.039h-78.602v-119.774h-400.492v119.774h-78.602v-640.039h557.695zM512 797.243c-22.458 0-39.301-16.842-39.301-39.301s16.842-39.301 39.301-39.301 39.301 16.842 39.301 39.301-16.842 39.301-39.301 39.301zM790.847 797.243c43.043 0 80.473-35.558 80.473-78.602v-640.039c0-43.043-37.43-78.602-80.473-78.602h-557.695c-43.043 0-80.473 35.558-80.473 78.602v640.039c0 43.043 37.43 78.602 80.473 78.602h166.559c16.842 46.786 59.886 80.473 112.288 80.473s95.444-33.686 112.288-80.473h166.559z" />
<glyph unicode="&#xe917;" glyph-name="instagram" d="M512.258 798.671c117.28 0 131.168-0.514 177.292-2.572 42.865-1.886 66.012-9.089 81.445-15.090 20.404-7.887 35.15-17.489 50.409-32.749 15.431-15.431 24.863-30.006 32.922-50.409 6.001-15.431 13.204-38.75 15.090-81.445 2.058-46.294 2.572-60.184 2.572-177.292s-0.514-131.168-2.572-177.292c-1.886-42.865-9.089-66.012-15.090-81.445-7.887-20.404-17.489-35.15-32.749-50.409-15.431-15.431-30.006-24.863-50.409-32.922-15.431-6.001-38.75-13.204-81.445-15.090-46.294-2.058-60.184-2.572-177.292-2.572s-131.168 0.514-177.292 2.572c-42.865 1.886-66.012 9.089-81.445 15.090-20.404 7.887-35.15 17.489-50.409 32.749-15.431 15.431-24.863 30.006-32.922 50.409-6.001 15.431-13.204 38.75-15.090 81.445-2.058 46.294-2.572 60.184-2.572 177.292s0.514 131.168 2.572 177.292c1.886 42.865 9.089 66.012 15.090 81.445 7.887 20.404 17.489 35.15 32.749 50.409 15.431 15.431 30.006 24.863 50.409 32.922 15.431 6.001 38.75 13.204 81.445 15.090 46.122 2.058 60.012 2.572 177.292 2.572zM512.258 877.714c-119.166 0-134.084-0.514-180.893-2.572-46.638-2.058-78.702-9.602-106.478-20.404-28.978-11.316-53.497-26.235-77.844-50.754-24.519-24.347-39.437-48.866-50.754-77.671-10.802-27.948-18.346-59.839-20.404-106.478-2.058-46.98-2.572-61.897-2.572-181.064s0.514-134.084 2.572-180.893c2.058-46.638 9.602-78.702 20.404-106.478 11.316-28.978 26.235-53.497 50.754-77.844 24.347-24.347 48.866-39.437 77.671-50.582 27.948-10.802 59.839-18.346 106.478-20.404 46.808-2.058 61.727-2.572 180.893-2.572s134.084 0.514 180.893 2.572c46.638 2.058 78.702 9.602 106.478 20.404 28.806 11.145 53.324 26.235 77.671 50.582s39.437 48.866 50.582 77.671c10.802 27.948 18.346 59.839 20.404 106.478 2.058 46.808 2.572 61.727 2.572 180.893s-0.514 134.084-2.572 180.893c-2.058 46.638-9.602 78.702-20.404 106.478-10.802 29.148-25.719 53.667-50.238 78.016-24.347 24.347-48.866 39.437-77.671 50.582-27.948 10.802-59.839 18.346-106.478 20.404-46.98 2.229-61.897 2.743-181.064 2.743v0zM512.258 664.244c-124.482 0-225.474-100.991-225.474-225.474s100.991-225.474 225.474-225.474 225.474 100.991 225.474 225.474c0 124.482-100.991 225.474-225.474 225.474zM512.258 292.512c-80.759 0-146.258 65.499-146.258 146.258s65.499 146.258 146.258 146.258c80.759 0 146.258-65.499 146.258-146.258s-65.499-146.258-146.258-146.258zM799.285 673.16c0-29.070-23.568-52.638-52.638-52.638s-52.638 23.568-52.638 52.638c0 29.070 23.568 52.638 52.638 52.638s52.638-23.568 52.638-52.638z" />
<glyph unicode="&#xe918;" glyph-name="twitter" d="M1023.999 756.392c-37.593-16.797-78.184-27.994-120.577-32.994 43.392 25.995 76.585 67.186 92.382 116.178-40.591-23.995-85.584-41.592-133.373-50.989-38.392 40.793-92.982 66.187-153.37 66.187-115.976 0-209.959-93.982-209.959-209.959 0-16.396 1.8-32.394 5.398-47.792-174.567 8.799-329.336 92.382-432.915 219.557-17.997-30.995-28.395-67.186-28.395-105.578 0-72.786 36.993-137.173 93.382-174.766-34.393 1.001-66.787 10.597-95.18 26.194 0-0.799 0-1.8 0-2.599 0-101.781 72.385-186.763 168.566-205.96-17.596-4.798-36.194-7.398-55.389-7.398-13.598 0-26.595 1.399-39.592 3.8 26.794-83.383 104.38-144.172 196.162-145.972-71.986-56.389-162.369-89.981-260.95-89.981-16.996 0-33.594 1.001-50.19 3 93.181-59.788 203.56-94.381 322.138-94.381 386.323 0 597.684 320.138 597.684 597.684 0 9.198-0.199 18.196-0.6 27.195 40.992 29.394 76.585 66.387 104.779 108.579z" />
<glyph unicode="&#xe919;" glyph-name="facebook" d="M594.286 713.143h137.142v164.572h-137.142c-105.87 0-192-86.13-192-192v-82.286h-109.714v-164.572h109.714v-438.858h164.572v438.858h137.142l27.428 164.572h-164.572v82.286c0 14.868 12.56 27.428 27.428 27.428z" />
<glyph unicode="&#xe91a;" glyph-name="linkedin" d="M376.968 607.648h186.837v-95.771h2.669c25.995 46.623 89.627 95.771 184.449 95.771 197.217 0 233.691-122.77 233.691-282.443v-325.203h-194.753v288.293c0 68.765-1.407 157.215-101.303 157.215-101.429 0-116.909-74.885-116.909-152.221v-293.287h-194.681v607.648zM39.385 607.648h202.55v-607.648h-202.55v607.648zM241.935 776.44c0-55.932-45.341-101.273-101.273-101.273s-101.273 45.341-101.273 101.273c0 55.932 45.341 101.273 101.273 101.273s101.273-45.341 101.273-101.273z" />
<glyph unicode="&#xe91b;" glyph-name="sort-amount-desc" d="M361.142 219.429v658.286h-109.714v-658.286h-137.142l192-192 192 192h-137.142zM827.428-0.001c-15.15 0-27.428 12.281-27.428 27.428v301.714h-27.428c-15.15 0-27.428 12.281-27.428 27.428s12.279 27.428 27.428 27.428h54.858c15.15 0 27.428-12.281 27.428-27.428v-329.142c0-15.149-12.279-27.428-27.428-27.428zM882.286 877.715h-164.572c-15.15 0-27.428-12.279-27.428-27.428v-164.572c0-15.15 12.279-27.428 27.428-27.428h137.142v-109.714h-137.142c-15.15 0-27.428-12.279-27.428-27.428s12.279-27.428 27.428-27.428h164.572c15.15 0 27.428 12.279 27.428 27.428v329.142c0 15.15-12.279 27.428-27.428 27.428zM745.142 822.857h109.714v-109.714h-109.714v109.714z" />
<glyph unicode="&#xe91c;" glyph-name="pinterest" d="M451.302 297.231c-23.082-120.858-51.213-236.715-134.638-297.232-25.716 182.648 37.785 319.788 67.319 465.397-50.334 84.697 6.057 255.057 112.125 213.061 130.556-51.608-113.046-314.741 50.466-347.655 170.755-34.274 240.444 296.222 134.55 403.696-152.937 155.263-445.254 3.642-409.268-218.634 8.733-54.33 64.862-70.785 22.425-145.784-97.906 21.678-127.134 98.916-123.359 201.87 6.057 168.518 151.359 286.435 297.143 302.805 184.36 20.67 357.398-67.714 381.315-241.103 26.902-195.77-83.204-407.822-280.379-392.549-53.453 4.17-75.834 30.677-117.699 56.129z" />
<glyph unicode="&#xe91d;" glyph-name="sort-amount-asc" d="M361.142 219.429v658.286h-109.714v-658.286h-137.142l192-192 192 192h-137.142zM827.428 493.715c-15.15 0-27.428 12.281-27.428 27.428v301.714h-27.428c-15.15 0-27.428 12.281-27.428 27.428s12.279 27.428 27.428 27.428h54.858c15.15 0 27.428-12.281 27.428-27.428v-329.142c0-15.149-12.279-27.428-27.428-27.428zM882.286 383.999h-164.572c-15.15 0-27.428-12.279-27.428-27.428v-164.572c0-15.15 12.279-27.428 27.428-27.428h137.142v-109.714h-137.142c-15.15 0-27.428-12.279-27.428-27.428s12.279-27.428 27.428-27.428h164.572c15.15 0 27.428 12.279 27.428 27.428v329.142c0 15.15-12.279 27.428-27.428 27.428zM745.142 329.143h109.714v-109.714h-109.714v109.714z" />
<glyph unicode="&#xe91e;" glyph-name="cc-sa" d="M511.434 877.711c-121.559 0-224.463-42.427-308.67-127.258-86.429-87.775-129.62-191.65-129.62-311.595s43.191-223.096 129.62-309.399c86.404-86.317 189.307-129.455 308.67-129.455 120.835 0 225.567 43.514 314.187 130.552 83.477 82.648 125.237 185.422 125.237 308.301s-42.482 226.739-127.433 311.595c-84.963 84.83-188.957 127.258-311.991 127.258zM512.538 798.733c99.602 0 184.178-35.116 253.766-105.335 70.3-69.482 105.441-154.325 105.441-254.541 0-100.928-34.407-184.685-103.257-251.261-72.509-71.677-157.819-107.504-255.949-107.504-98.141 0-182.717 35.478-253.758 106.42-71.034 70.954-106.553 155.062-106.553 252.346 0 97.286 35.886 182.129 107.657 254.541 68.846 70.219 153.052 105.335 252.653 105.335zM316.918 500.798c17.511 110.41 95.228 169.445 192.64 169.445 140.109 0 225.486-101.679 225.486-237.226 0-132.281-90.857-235.043-227.676-235.043-94.132 0-178.411 57.939-193.74 171.629h110.558c3.281-59.035 41.591-79.806 96.32-79.806 62.383 0 102.896 57.949 102.896 146.502 0 92.919-35.035 142.11-100.712 142.11-48.154 0-89.745-17.49-98.503-77.61l32.134 0.174-87.018-87.013-87.018 87.013 34.634-0.174z" />
<glyph unicode="&#xe91f;" glyph-name="cc-pd" d="M512 877.715c-242.369 0-438.858-196.489-438.858-438.858 0-242.341 196.489-438.858 438.858-438.858s438.858 196.517 438.858 438.858c0 242.371-196.489 438.858-438.858 438.858zM512 82.29c-196.624 0-356.581 159.971-356.581 356.566 0 41.158 7.091 80.682 19.991 117.473l139.458-62.1c-3.755-18.664-5.792-38.13-5.792-58.239 0-175.2 130.77-224.564 213.048-224.564 48.519 0 90.51 15.662 123.381 38.636 6.246 4.479 11.907 8.983 17.106 13.567l-63.978 77.735c-1.878-2.143-3.834-4.182-5.844-6.006-24.885-23.597-52.237-23.597-58.349-23.597-66.941 0-94.961 70.626-95.334 127.202l384.359-171.125c0.454-0.079 0.831-0.079 1.205-0.161-60.65-110.419-178.063-185.393-312.67-185.393zM855.615 347.745l-396.426 176.942c14.304 25.902 37.070 45.369 71.136 45.369 19.748 0 35.408-6.542 47.742-14.802 5.119-3.701 9.573-7.398 13.326-11.127l71.458 73.55c-47.994 41.266-102.563 48.641-138.25 48.641-83.859 0-143.198-36.25-178.176-91.301l-132.567 59.124c63.804 97.065 173.591 161.31 298.139 161.31 196.622 0 356.594-159.945 356.594-356.594 0-31.83-4.264-62.634-12.121-92.025-0.321 0.321-0.534 0.592-0.858 0.916z" />
<glyph unicode="&#xe920;" glyph-name="books" horiz-adv-x="1170" d="M243.849 841.214h-201.179c-18.441 0-33.53-15.088-33.53-33.53v-737.654c0-18.441 15.088-33.53 33.53-33.53h201.179c18.441 0 33.53 15.088 33.53 33.53v737.654c0 18.441-15.088 33.53-33.53 33.53zM210.32 640.036h-134.119v67.060h134.119v-67.060zM579.147 841.214h-201.179c-18.441 0-33.53-15.088-33.53-33.53v-737.654c0-18.441 15.088-33.53 33.53-33.53h201.179c18.441 0 33.53 15.088 33.53 33.53v737.654c0 18.441-15.088 33.53-33.53 33.53zM545.617 640.036h-134.119v67.060h134.119v-67.060zM810.805 789.369l-179.661-90.524c-16.467-8.297-23.152-28.561-14.856-45.031l301.745-598.87c8.297-16.469 28.561-23.154 45.031-14.856l179.661 90.522c16.467 8.299 23.152 28.563 14.856 45.028l-301.745 598.872c-8.299 16.469-28.563 23.157-45.031 14.858z" />
<glyph unicode="&#xe921;" glyph-name="cc-nd" d="M511.433 877.711c-121.56 0-224.462-42.402-308.669-127.258-86.429-87.775-129.62-191.621-129.62-311.595 0-119.945 43.192-223.096 129.62-309.372 86.404-86.329 189.307-129.481 308.669-129.481 120.834 0 225.567 43.526 314.187 130.552 83.477 82.661 125.237 185.436 125.237 308.302 0 122.89-42.483 226.767-127.433 311.595-84.964 84.857-188.958 127.258-311.991 127.258zM512.539 798.748c99.602 0 184.177-35.118 253.766-105.347 70.299-69.484 105.44-154.313 105.44-254.544 0-100.928-34.406-184.685-103.258-251.248-72.508-71.679-157.819-107.49-255.949-107.49-98.141 0-182.722 35.464-253.758 106.42-71.034 70.954-106.552 155.060-106.552 252.319 0 97.313 35.886 182.141 107.657 254.544 68.846 70.229 153.053 105.347 252.653 105.347zM677.806 542.866h-319.001v-75.562h319.001v75.562zM677.806 401.841h-319.001v-75.562h319.001v75.562z" />
<glyph unicode="&#xe922;" glyph-name="cc-nc" d="M823.41 750.455c-84.964 84.857-188.947 127.259-311.973 127.259-121.579 0-224.464-42.402-308.679-127.259-86.437-87.776-129.616-191.625-129.616-311.598 0-119.946 43.178-223.098 129.616-309.375 86.411-86.331 189.295-129.483 308.679-129.483 120.832 0 225.563 43.527 314.168 130.554 83.49 82.66 125.251 185.438 125.251 308.303 0 122.892-42.483 226.767-127.447 311.598zM768.472 187.607c-72.51-71.68-157.82-107.49-255.937-107.49-98.142 0-182.731 35.464-253.768 106.419s-106.554 155.063-106.554 252.321c0 41.142 6.495 80.034 19.338 116.705l116.289-51.469h-8.383v-52.151h41.156c0-7.365-0.737-14.706-0.737-22.044v-12.51h-40.421v-52.151h47.759c6.617-38.946 21.307-70.527 41.142-95.517 41.142-54.377 107.263-83.759 179.263-83.759 47.035 0 89.626 13.955 114.616 27.938l-17.651 81.534c-15.428-8.090-49.928-19.098-83.73-19.098-36.75 0-71.263 11.009-94.782 37.473-11.022 12.484-19.098 29.383-24.228 51.428h159.723l226.955-100.459c-15.724-27.856-35.678-53.598-60.054-77.168zM483.045 417.387l-0.965 0.738 1.661-0.738h-0.697zM619.678 451.943h6.563v52.151h-124.393l-50.531 22.367c4.352 9.777 9.496 18.522 15.496 25.365 22.782 27.964 55.098 39.697 90.376 39.697 32.33 0 62.437-9.535 81.534-17.623l20.572 83.758c-26.465 11.73-65.383 22.016-110.198 22.016-69.054 0-127.835-27.91-169.714-74.919-9.294-10.742-17.358-22.795-24.67-35.545l-144.32 63.87c13.982 20.972 30.427 41.116 49.472 60.32 68.865 70.232 153.053 105.349 252.669 105.349 99.589 0 184.178-35.118 253.768-105.349 70.286-69.482 105.427-154.312 105.427-254.543 0-33.027-3.75-64.179-11.142-93.535l-240.91 106.62z" />
<glyph unicode="&#xe923;" glyph-name="profile" d="M813.715 841.143h-603.429c-41.486 0-75.429-33.942-75.429-75.429v-653.713c0-41.486 33.942-75.429 75.429-75.429h603.429c41.486 0 75.429 33.942 75.429 75.429v653.713c0 41.486-33.942 75.429-75.429 75.429zM788.573 137.144h-553.142v603.429h553.142v-603.429zM336.002 388.571h352v-50.286h-352zM336.002 287.999h352v-50.286h-352zM386.289 614.857c0 41.658 33.771 75.429 75.429 75.429s75.429-33.771 75.429-75.429c0-41.658-33.771-75.429-75.429-75.429s-75.429 33.771-75.429 75.429zM512.002 539.428h-100.571c-41.486 0-75.429-22.629-75.429-50.286v-50.286h251.429v50.286c0 27.658-33.942 50.286-75.429 50.286z" />
<glyph unicode="&#xe924;" glyph-name="cc-by" d="M630.089 547.513c0 15.655-12.709 28.338-28.338 28.338h-179.509c-15.649 0-28.338-12.683-28.338-28.338v-179.515h50.069v-212.568h136.041v212.568h50.076v179.515zM573.398 660.882c0-33.914-27.492-61.405-61.405-61.405s-61.405 27.492-61.405 61.405c0 33.914 27.492 61.405 61.405 61.405s61.405-27.492 61.405-61.405zM511.442 877.707c-121.572 0-224.473-42.415-308.679-127.256-86.428-87.775-129.619-191.634-129.619-311.592 0-119.944 43.191-223.094 129.619-309.396 86.403-86.303 189.305-129.453 308.679-129.453 120.83 0 225.56 43.5 314.178 130.551 83.476 82.633 125.236 185.408 125.236 308.298s-42.482 226.751-127.432 311.592c-84.962 84.843-188.957 127.256-311.983 127.256zM512.542 798.732c99.601 0 184.176-35.103 253.763-105.334 70.299-69.482 105.441-154.323 105.441-254.54 0-100.927-34.407-184.684-103.256-251.245-72.509-71.678-157.818-107.516-255.948-107.516-98.148 0-182.727 35.465-253.763 106.419s-106.552 155.059-106.552 252.344c0 97.284 35.885 182.127 107.656 254.54 68.845 70.231 153.050 105.334 252.658 105.334z" />
<glyph unicode="&#xe925;" glyph-name="cc-zero" d="M447.514 1.812c-111.086 22.206-177.893 56.071-247.755 125.584-61.686 61.378-96.863 125.408-119.705 217.897-9.217 37.317-9.217 149.341 0 186.659 21.455 86.874 54.364 149.391 109.891 208.762 65.274 69.793 139.494 111.62 230.417 129.851 37.541 7.529 128.574 9.654 160.424 3.75 47.862-8.874 59.586-11.747 84.811-20.789 105.542-37.824 193.841-117.107 242.648-217.877 28.907-59.682 40.062-107.832 42.081-181.651 1.581-57.797 0.068-75.231-11.073-127.718-25.032-117.918-114.683-226.218-233.933-282.595-71.329-33.721-119.033-44.25-197.777-43.657-29.213 0.22-56.226 1.025-60.035 1.784zM596.18 85.944c93.268 22.868 187.742 93.294 234.305 174.659 33.013 57.685 44.488 103.607 44.521 178.174 0.019 46.422-1.17 58.331-8.768 87.52-16.488 63.345-44.586 113.439-90.618 161.548-54.234 56.682-105.702 87.223-177.522 105.346-27.666 6.979-41.427 8.303-86.697 8.338-46.403 0.042-58.431-1.158-87.355-8.664-65.88-17.098-108.854-42.072-162.629-94.516-58.987-57.528-88.304-109.506-110.421-195.778-6.052-23.604-1.241-127.001 7.238-155.549 11.158-37.574 42.618-98.329 65.586-126.665 64.888-80.046 138.274-123.147 242.735-142.557 22.006-4.088 99.622 0.786 129.629 8.146zM462.77 191.556c-60.19 14.592-100.948 62.51-121.584 142.95-6.724 26.204-7.644 38.763-7.644 104.118s0.922 77.91 7.644 104.118c25.752 100.384 80.658 148.117 170.369 148.117 81.581 0 134.121-39.374 161.513-121.036 15.172-45.225 19.992-88.311 17.383-155.395-4.302-110.722-33.211-173.321-97.123-210.292-29.134-16.854-89.102-22.629-130.562-12.579zM534.695 283.292c23.428 8.838 42.681 38.446 51.151 78.653 5.203 24.702 8.161 124.61 3.894 131.504-3.626 5.858-14.073 4.761-20.133-2.113-2.934-3.328-9.458-14.268-14.5-24.313s-14.341-26.378-20.667-36.294c-6.326-9.918-15.272-25.033-19.887-33.588s-17.298-30.567-28.193-48.915c-10.894-18.347-19.806-36.354-19.806-40.014 0-6.762 9.965-17.64 22.502-24.566 8.877-4.903 33.090-5.094 45.642-0.355zM449.906 403.191c4.886 5.228 11.685 15.727 15.115 23.332s12.738 25.494 20.685 39.751c7.949 14.26 21.906 39.925 31.015 57.035s17.905 32.586 19.542 34.393c1.638 1.806 2.981 9.105 2.981 16.224 0 15.779-9.438 23.703-28.239 23.703-33.819 0-60.936-27.476-72.23-73.185-4.346-17.59-10.775-118.603-8.007-125.806 2.882-7.502 9.294-5.975 19.134 4.554z" />
<glyph unicode="&#xe926;" glyph-name="cc" d="M404.634 364.435c-18.57 0-32.589 6.788-42.053 20.363-9.554 13.481-14.286 31.516-14.286 54.016 0 49.553 18.748 74.378 56.339 74.378 7.5 0 15.625-2.502 24.375-7.503s16.158-13.75 22.144-26.25l56.339 29.286c-22.5 40.536-59.822 60.803-111.878 60.803-35.581 0-64.997-11.786-88.208-35.268-23.306-23.572-35.006-55.354-35.006-95.446 0-41.071 11.568-73.125 34.556-96.16 23.035-23.035 53.395-34.465 90.893-34.465 23.572 0 45.089 5.893 64.601 17.586 19.506 11.79 34.774 27.949 45.845 48.485l-51.875 26.25c-10-24.018-27.28-36.075-51.785-36.075zM647.22 364.435c-18.57 0-32.585 6.788-42.053 20.363-9.554 13.481-14.286 31.516-14.286 54.016 0 49.553 18.752 74.378 56.339 74.378 7.95 0 16.341-2.502 25.092-7.503 8.797-5 16.16-13.75 22.231-26.25l55.532 29.286c-22.053 40.536-59.105 60.803-111.158 60.803-35.536 0-64.956-11.786-88.215-35.268-23.3-23.572-34.913-55.354-34.913-95.446 0-41.071 11.342-73.125 34.155-96.16 22.769-23.035 53.17-34.465 91.25-34.465 22.988 0 44.328 5.893 63.795 17.586 19.556 11.79 35.090 27.949 46.611 48.485l-52.592 26.25c-10-24.018-27.321-36.075-51.788-36.075zM823.443 750.452c-84.964 84.856-188.98 127.254-312.020 127.254-121.549 0-224.456-42.399-308.669-127.254-86.409-87.773-129.61-191.619-129.61-311.587 0-119.958 43.2-223.081 129.61-309.381 86.409-86.328 189.315-129.478 308.669-129.478 120.843 0 225.586 43.524 314.216 130.55 83.463 82.659 125.218 185.432 125.218 308.309 0 122.887-42.477 226.761-127.413 311.587zM768.503 187.611c-72.506-71.68-157.829-107.516-255.982-107.516-98.14 0-182.698 35.49-253.732 106.444-71.033 70.924-106.551 155.056-106.551 252.326 0 97.282 35.864 182.138 107.647 254.536 68.838 70.229 153.050 105.346 252.637 105.346 99.627 0 184.202-35.117 253.79-105.346 70.311-69.482 105.449-154.308 105.449-254.536 0-100.94-34.417-184.695-103.255-251.256z" />
<glyph unicode="&#xe927;" glyph-name="filter" d="M170.667 382.857v112h682.667v-112h-682.667zM0 780.19h1024v-114.667h-1024v114.667zM397.333 97.524v114.667h229.333v-114.667h-229.333z" />
<glyph unicode="&#xe928;" glyph-name="tags" d="M932.988 859.844h-212.361c-50.056 0-119.971-28.959-155.368-64.356l-356.689-356.689c-35.395-35.395-35.395-93.314 0-128.71l265.676-265.674c35.395-35.397 93.314-35.397 128.71 0l356.688 356.688c35.399 35.397 64.358 105.31 64.358 155.368v212.361c0 50.056-40.956 91.012-91.012 91.012zM811.639 556.47c-50.266 0-91.012 40.748-91.012 91.012s40.748 91.012 91.012 91.012 91.012-40.748 91.012-91.012-40.748-91.012-91.012-91.012zM74.654 352.996l324.589-324.589c-34.38-18.165-78.178-12.834-107.021 16.011l-265.676 265.674c-35.395 35.397-35.395 93.316 0 128.71l356.689 356.689c35.397 35.397 105.31 64.356 155.368 64.356l-463.949-463.946c-11.797-11.799-11.797-31.103 0-42.903z" />
<glyph unicode="&#xe929;" glyph-name="statistics" d="M0.001 150.857h1024v-128h-1024zM128.001 406.858h128v-191.999h-128zM320.003 662.859h128v-448h-128zM512.002 470.856h128v-256.001h-128zM704.001 854.858h128v-640.002h-128z" />
<glyph unicode="&#xe92a;" glyph-name="muikku-link" d="M716.555 813.489c-117.794 0-220.044-66.277-271.56-163.543l-55.426 32.356c1.857 7.136 3.031 14.566 3.031 22.289 0 48.486-39.394 87.881-87.881 87.881s-87.881-39.394-87.881-87.881c0-48.486 39.394-87.881 87.881-87.881 23.755 0 45.357 9.483 61.194 24.927l60.314-35.191c-10.851-31.38-16.813-65.105-16.813-100.197 0-39.688 7.625-77.519 21.31-112.417l-94.723-46.042c-32.747 49.757-89.054 82.602-152.888 82.602-100.98 0-183.094-82.113-183.094-183.094s82.113-183.094 183.094-183.094c100.98 0 183.094 82.113 183.094 183.094 0 20.333-3.422 39.786-9.58 58.066l94.723 46.042c53.275-91.205 152.204-152.495 265.401-152.495 169.701 0 307.239 137.538 307.239 307.239-0.196 169.701-137.736 307.34-307.435 307.34zM886.843 487.286c-35.582 0-64.323 28.837-64.323 64.323s28.837 64.323 64.323 64.323 64.323-28.837 64.323-64.323-28.739-64.323-64.323-64.323z" />
<glyph unicode="&#xe92b;" glyph-name="board" d="M512 485.341h188.125v-283.294h-188.125v283.294zM228.706 675.677h236.816v-236.816h-236.816v236.816zM512 675.677h188.125v-141.647h-188.125v141.647zM228.706 392.384h236.816v-190.338h-236.816v190.338zM795.294 109.091v659.544h-661.757v-659.544h661.757zM983.419 580.508h-92.956v-95.17h92.956v-92.956h-92.956v-95.17h92.956v-95.17h-92.956v-92.956q0-37.625-28.772-66.397t-66.397-28.772h-661.757q-37.625 0-65.29 28.772t-27.665 66.397v659.544q0 37.625 27.665 66.397t65.29 28.772h661.757q37.625 0 66.397-28.772t28.772-66.397v-92.956h92.956v-95.17z" />
<glyph unicode="&#xe92c;" glyph-name="file-text1" d="M750.325 652.184h-110.336v110.336zM883.488 639.683l-255.999 255.999c-3.925 3.925-8.619 7.083-13.824 9.259s-10.795 3.243-16.341 3.243h-341.332c-35.328 0-67.413-14.379-90.496-37.504s-37.504-55.168-37.504-90.496v-682.666c0-35.328 14.379-67.413 37.504-90.496s55.168-37.504 90.496-37.504h512c35.328 0 67.413 14.379 90.496 37.504s37.504 55.168 37.504 90.496v512c0 11.776-4.779 22.443-12.501 30.165zM554.656 822.851v-213.333c0-23.552 19.115-42.667 42.667-42.667h213.333v-469.332c0-11.776-4.736-22.4-12.501-30.165s-18.389-12.501-30.165-12.501h-512c-11.776 0-22.4 4.736-30.165 12.501s-12.501 18.389-12.501 30.165v682.666c0 11.776 4.736 22.4 12.501 30.165s18.389 12.501 30.165 12.501zM682.655 438.85h-341.332c-23.552 0-42.667-19.115-42.667-42.667s19.115-42.667 42.667-42.667h341.332c23.552 0 42.667 19.115 42.667 42.667s-19.115 42.667-42.667 42.667zM682.655 268.184h-341.332c-23.552 0-42.667-19.115-42.667-42.667s19.115-42.667 42.667-42.667h341.332c23.552 0 42.667 19.115 42.667 42.667s-19.115 42.667-42.667 42.667zM426.656 609.518h-85.333c-23.552 0-42.667-19.115-42.667-42.667s19.115-42.667 42.667-42.667h85.333c23.552 0 42.667 19.115 42.667 42.667s-19.115 42.667-42.667 42.667z" />
<glyph unicode="&#xe92d;" glyph-name="cart-plus" horiz-adv-x="951" d="M674.973 571.845c0 18.182-15.065 33.246-33.246 33.246h-66.494v66.494c0 18.182-15.065 33.246-33.246 33.246s-33.246-15.065-33.246-33.246v-66.494h-66.494c-18.182 0-33.246-15.065-33.246-33.246s15.065-33.246 33.246-33.246h66.494v-66.494c0-18.182 15.065-33.246 33.246-33.246s33.246 15.065 33.246 33.246v66.494h66.494c18.182 0 33.246 15.065 33.246 33.246zM375.751 139.636c0-36.883-29.61-66.494-66.494-66.494s-66.494 29.61-66.494 66.494 29.61 66.494 66.494 66.494 66.494-29.61 66.494-66.494zM841.207 139.636c0-36.883-29.61-66.494-66.494-66.494s-66.494 29.61-66.494 66.494 29.61 66.494 66.494 66.494 66.494-29.61 66.494-66.494zM907.701 704.832v-265.975c0-16.624-12.467-31.169-29.61-33.246l-542.339-63.377c2.078-11.428 6.754-24.416 6.754-36.364s-7.273-22.857-12.467-33.246h477.924c18.182 0 33.246-15.065 33.246-33.246s-15.065-33.246-33.246-33.246h-531.95c-18.182 0-33.246 15.065-33.246 33.246 0 16.104 24.416 56.104 31.688 71.169l-91.949 427.534h-105.974c-18.182 0-33.246 15.065-33.246 33.246s15.065 33.246 33.246 33.246h132.988c35.325 0 35.845-41.558 41.039-66.494h623.899c18.182 0 33.246-15.065 33.246-33.246z" />
<glyph unicode="&#xe92e;" glyph-name="stack" d="M1024 630.857l-512 256-512-256 512-256 512 256zM512 801.886l342.058-171.030-342.058-171.030-342.058 171.030 342.058 171.030zM921.444 490.134l102.556-51.278-512-256-512 256 102.556 51.278 409.444-204.722zM921.444 298.135l102.556-51.278-512-256-512 256 102.556 51.278 409.444-204.722z" />
<glyph unicode="&#xe92f;" glyph-name="shopping-cart" horiz-adv-x="951" d="M375.751 139.636c0-36.364-30.13-66.494-66.494-66.494s-66.494 30.13-66.494 66.494 30.13 66.494 66.494 66.494 66.494-30.13 66.494-66.494zM841.207 139.636c0-36.364-30.13-66.494-66.494-66.494s-66.494 30.13-66.494 66.494 30.13 66.494 66.494 66.494 66.494-30.13 66.494-66.494zM907.701 704.832v-265.975c0-16.624-12.987-31.169-29.61-33.246l-542.339-63.377c2.597-11.948 6.754-23.896 6.754-36.364 0-11.948-7.273-22.857-12.467-33.246h477.924c18.182 0 33.246-15.065 33.246-33.246s-15.065-33.246-33.246-33.246h-531.95c-18.182 0-33.246 15.065-33.246 33.246 0 16.104 23.376 55.065 31.688 71.169l-91.949 427.534h-105.974c-18.182 0-33.246 15.065-33.246 33.246s15.065 33.246 33.246 33.246h132.988c34.806 0 35.845-41.558 41.039-66.494h623.899c18.182 0 33.246-15.065 33.246-33.246z" />
<glyph unicode="&#xe930;" glyph-name="forward" d="M942.074 546.378c0-8.16-3.36-15.84-9.12-21.6l-245.762-245.762c-5.76-5.76-13.44-9.12-21.6-9.12-16.8 0-30.72 13.919-30.72 30.72v122.881h-107.521c-206.882 0-342.723-39.841-342.723-268.802 0-19.681 0.961-39.361 2.399-59.040 0.479-7.681 2.399-16.321 2.399-23.999 0-9.12-5.76-16.8-15.36-16.8-6.72 0-10.080 3.36-13.44 8.16-7.199 10.080-12.48 25.44-17.761 36.481-27.359 61.441-60.96 149.281-60.96 216.481 0 53.76 5.28 108.96 25.44 159.841 66.721 165.601 262.562 193.442 420.003 193.442h107.521v122.881c0 16.8 13.919 30.72 30.72 30.72 8.16 0 15.84-3.36 21.6-9.12l245.762-245.762c5.76-5.76 9.12-13.44 9.12-21.6z" />
<glyph unicode="&#xe948;" glyph-name="location2" d="M512 877.724c-151.486 0-274.287-122.802-274.287-274.287 0-274.287 274.287-603.432 274.287-603.432s274.287 329.144 274.287 603.432c0 151.486-122.804 274.287-274.287 274.287zM512 435.436c-92.784 0-168 75.216-168 168s75.216 168 168 168 168-75.216 168-168-75.216-168-168-168zM405.714 603.437c0 58.7 47.587 106.286 106.286 106.286s106.286-47.587 106.286-106.286c0-58.7-47.587-106.286-106.286-106.286s-106.286 47.587-106.286 106.286z" />
<glyph unicode="&#xe94a;" glyph-name="compass2" d="M512 877.715c-242.375 0-438.858-196.484-438.858-438.858s196.484-438.858 438.858-438.858 438.858 196.484 438.858 438.858-196.484 438.858-438.858 438.858zM155.428 438.857c0 196.929 159.644 356.572 356.572 356.572 93.92 0 179.342-36.331 243.030-95.682l-352.744-151.176-151.176-352.744c-59.35 63.688-95.682 149.109-95.682 243.030zM574.714 376.143l-219.5-94.072 94.072 219.5 125.428-125.428zM512 82.285c-93.92 0-179.344 36.331-243.028 95.682l352.743 151.176 151.176 352.743c59.35-63.684 95.682-149.108 95.682-243.028 0-196.929-159.644-356.572-356.572-356.572z" />
<glyph unicode="&#xe965;" glyph-name="undo" d="M512 850.286c-129.841 0-247.386-52.641-332.478-137.735l-137.726 137.735v-352.653h352.653l-131.815 131.806c63.823 63.819 151.981 103.296 249.366 103.296 194.756 0 352.653-157.889 352.653-352.653 0-105.333-46.186-199.87-119.404-264.49l77.755-88.163c97.624 86.159 159.201 212.213 159.201 352.653 0 259.687-210.517 470.204-470.204 470.204z" />
<glyph unicode="&#xe967;" glyph-name="back" d="M740.289 0.002c97.48 176.598 113.904 445.976-269.024 436.992v-217.564l-329.142 329.142 329.142 329.142v-212.89c458.538 11.95 509.632-404.754 269.024-664.824z" />
<glyph unicode="&#xe970;" glyph-name="bubbles" d="M429.715 767.999c-43.428 0-85.356-6.814-124.616-20.252-36.792-12.594-69.526-30.374-97.288-52.84-51.466-41.648-79.81-94.974-79.81-150.15 0-30.848 8.628-60.812 25.646-89.056 17.73-29.434 44.484-56.394 77.366-77.964 26.092-17.116 43.66-44.53 48.31-75.386 0.774-5.134 1.398-10.29 1.868-15.456 2.334 2.16 4.65 4.384 6.954 6.68 20.69 20.606 48.59 31.982 77.418 31.982 4.584 0 9.186-0.288 13.794-0.872 16.594-2.102 33.534-3.168 50.356-3.168 43.428 0 85.354 6.812 124.614 20.252 36.794 12.594 69.528 30.372 97.29 52.838 51.468 41.648 79.81 94.974 79.81 150.15s-28.342 108.498-79.81 150.15c-27.762 22.468-60.496 40.244-97.29 52.84-39.26 13.438-81.186 20.252-124.614 20.252zM429.715 877.715v0c227.226 0 411.428-149.070 411.428-332.956s-184.204-332.956-411.428-332.956c-21.822 0-43.24 1.388-64.144 4.038-88.376-88.024-190.434-103.806-292.428-106.126v21.544c55.074 26.874 99.428 75.828 99.428 131.772 0 7.806-0.61 15.47-1.74 22.966-93.050 61.040-152.546 154.276-152.546 258.762 0 183.886 184.204 332.956 411.428 332.956zM872.001 131.411c0-47.95 31.126-89.912 78.858-112.948v-18.464c-88.394 1.986-169.53 15.516-246.122 90.966-18.12-2.272-36.68-3.462-55.592-3.462-81.832 0-157.206 22.078-217.384 59.178 124.006 0.434 241.080 40.16 329.858 112.004 44.75 36.216 80.052 78.708 104.926 126.298 26.37 50.456 39.742 104.214 39.742 159.776 0 8.956-0.386 17.86-1.078 26.716 62.202-51.372 100.506-121.39 100.506-198.58 0-89.562-51.564-169.476-132.206-221.798-0.978-6.426-1.508-12.994-1.508-19.686z" />
<glyph unicode="&#xe972;" glyph-name="users" d="M676.573 217.191v45.24c60.425 34.052 109.714 118.948 109.714 203.856 0 136.336 0 246.857-164.572 246.857s-164.572-110.522-164.572-246.857c0-84.908 49.288-169.804 109.714-203.856v-45.24c-186.088-15.212-329.141-106.646-329.141-217.19h768c0 110.544-143.056 201.977-329.141 217.19zM298.741 196.007c47.408 30.986 106.354 54.545 171.245 68.926-12.904 15.244-24.605 32.248-34.708 50.588-26.069 47.344-39.85 99.478-39.85 150.766 0 73.75 0 143.408 26.228 200.368 25.462 55.289 71.252 89.568 136.476 102.418-14.498 65.554-53.092 108.641-155.848 108.641-164.572 0-164.572-110.522-164.572-246.857 0-84.908 49.288-169.804 109.714-203.856v-45.24c-186.088-15.212-329.141-106.646-329.141-217.19h239.148c12.444 11.066 26.225 21.576 41.306 31.433z" />
<glyph unicode="&#xe994;" glyph-name="cog" d="M873.533 354.641c-46.050 79.76-18.356 181.974 61.844 228.418l-86.25 149.394c-24.642-14.446-53.294-22.73-83.868-22.73-92.174 0-166.892 75.21-166.892 167.992h-172.506c0.228-28.638-6.92-57.67-22.25-84.216-46.050-79.762-148.42-106.888-228.738-60.65l-86.25-149.394c24.832-14.118 46.328-34.79 61.616-61.266 45.976-79.636 18.438-181.646-61.464-228.192l86.25-149.394c24.558 14.31 53.070 22.504 83.486 22.504 91.882 0 166.41-74.736 166.886-167.106h172.504c-0.074 28.35 7.090 57.060 22.256 83.33 45.974 79.634 148.094 106.794 228.354 60.868l86.25 149.392c-24.668 14.114-46.022 34.712-61.23 61.052zM511.999 261.143c-98.15 0-177.716 79.564-177.716 177.714s79.566 177.714 177.716 177.714c98.15 0 177.714-79.566 177.714-177.714-0.002-98.152-79.564-177.714-177.714-177.714z" />
<glyph unicode="&#xe9cb;" glyph-name="link" d="M450.734 333.201c-11.363 0-22.722 4.334-31.392 13.002-81.218 81.22-81.218 213.374 0 294.592l163.914 163.914c39.346 39.344 91.656 61.012 147.296 61.012s107.951-21.668 147.298-61.010c81.216-81.22 81.216-213.374 0-294.592l-74.928-74.928c-17.338-17.338-45.444-17.338-62.782 0-17.336 17.336-17.336 45.446 0 62.782l74.928 74.928c46.6 46.602 46.6 122.426 0 169.028-22.574 22.574-52.59 35.006-84.514 35.006s-61.939-12.432-84.514-35.008l-163.914-163.912c-46.602-46.602-46.602-122.428 0-169.030 17.338-17.336 17.336-45.446 0-62.782-8.666-8.667-20.030-13.002-31.39-13.002zM293.448 12.003c-55.642 0-107.952 21.668-147.296 61.010-81.218 81.22-81.218 213.374 0 294.592l74.926 74.926c17.338 17.336 45.446 17.336 62.782 0 17.338-17.336 17.338-45.446 0-62.782l-74.926-74.926c-46.602-46.602-46.602-122.428 0-169.030 22.572-22.572 52.588-35.004 84.513-35.004s61.939 12.432 84.516 35.008l163.914 163.912c46.6 46.602 46.6 122.428 0 169.030-17.338 17.338-17.336 45.446 0 62.782s45.446 17.336 62.782-0.002c81.216-81.218 81.216-213.372 0.002-294.592l-163.916-163.914c-39.348-39.346-91.658-61.012-147.299-61.012z" />
<glyph unicode="&#xe9df;" glyph-name="assessment-pending" d="M512-0.001c242.374 0 438.858 196.482 438.858 438.858s-196.482 438.858-438.858 438.858-438.858-196.482-438.858-438.858 196.482-438.858 438.858-438.858zM512 795.429c196.928 0 356.572-159.642 356.572-356.572s-159.642-356.572-356.572-356.572-356.572 159.642-356.572 356.572 159.642 356.572 356.572 356.572zM512 364.491c99.386 0 193.912 26.406 274.286 72.788-12.492-152.946-131.252-272.708-274.286-272.708-143.030 0-261.79 119.89-274.286 272.832 80.374-46.382 174.9-72.912 274.286-72.912zM292.572 575.999c0 45.445 24.56 82.286 54.858 82.286s54.858-36.841 54.858-82.286c0-45.445-24.56-82.286-54.858-82.286s-54.858 36.841-54.858 82.286zM621.714 575.999c0 45.445 24.56 82.286 54.858 82.286s54.858-36.841 54.858-82.286c0-45.445-24.56-82.286-54.858-82.286s-54.858 36.841-54.858 82.286z" />
<glyph unicode="&#xe9e1;" glyph-name="assessment-unassessed" d="M512-0.001c242.374 0 438.858 196.482 438.858 438.858s-196.482 438.858-438.858 438.858-438.858-196.482-438.858-438.858 196.482-438.858 438.858-438.858zM512 795.429c196.928 0 356.572-159.642 356.572-356.572s-159.642-356.572-356.572-356.572-356.572 159.642-356.572 356.572 159.642 356.572 356.572 356.572zM292.572 603.429c0 30.296 24.56 54.858 54.858 54.858s54.858-24.56 54.858-54.858c0-30.296-24.56-54.858-54.858-54.858s-54.858 24.56-54.858 54.858zM621.714 603.429c0 30.296 24.56 54.858 54.858 54.858s54.858-24.56 54.858-54.858c0-30.296-24.56-54.858-54.858-54.858s-54.858 24.56-54.858 54.858zM676.656 340.063l70.566-42.34c-47.968-79.774-135.356-133.152-235.222-133.152s-187.254 53.378-235.222 133.152l70.566 42.34c33.578-55.842 94.75-93.206 164.656-93.206s131.078 37.364 164.656 93.206z" />
<glyph unicode="&#xe9e9;" glyph-name="assessment-pass" d="M512-0.001c242.374 0 438.858 196.482 438.858 438.858s-196.482 438.858-438.858 438.858-438.858-196.482-438.858-438.858 196.482-438.858 438.858-438.858zM512 795.429c196.928 0 356.572-159.642 356.572-356.572s-159.642-356.572-356.572-356.572-356.572 159.642-356.572 356.572 159.642 356.572 356.572 356.572zM237.714 438.857v-54.858c0-120.686 98.742-219.428 219.428-219.428h109.714c120.686 0 219.428 98.742 219.428 219.428v54.858h-548.572zM402.286 228.867c-22.746 8.106-43.65 21.276-61.324 38.954-31.206 31.202-48.39 72.462-48.39 116.178h109.714v-155.132zM566.858 219.429h-109.714v164.572h109.714v-164.572zM683.038 267.821c-17.678-17.678-38.58-30.846-61.324-38.954v155.132h109.714c0-43.716-17.184-84.978-48.39-116.178zM266.302 548.571c0.002 0 0 0 0 0 8.372 0 15.522 6.048 16.906 14.306 5.278 31.444 32.286 54.266 64.22 54.266s58.942-22.822 64.22-54.266c1.386-8.256 8.534-14.306 16.904-14.306 8.372 0 15.522 6.048 16.906 14.304 0.928 5.516 1.396 11.086 1.396 16.554 0 54.824-44.604 99.428-99.428 99.428s-99.428-44.604-99.428-99.428c0-5.466 0.47-11.036 1.396-16.554 1.388-8.256 8.538-14.304 16.908-14.304zM595.444 548.571c0.002 0 0 0 0 0 8.374 0 15.524 6.048 16.906 14.306 5.278 31.444 32.286 54.266 64.22 54.266s58.942-22.822 64.22-54.266c1.386-8.256 8.536-14.306 16.904-14.306s15.522 6.048 16.904 14.304c0.928 5.516 1.396 11.086 1.396 16.554 0 54.824-44.604 99.428-99.428 99.428s-99.428-44.604-99.428-99.428c0-5.466 0.466-11.036 1.394-16.554 1.392-8.256 8.54-14.304 16.912-14.304z" />
<glyph unicode="&#xe9f3;" glyph-name="assessment-cancel" d="M512-0.001c242.374 0 438.858 196.482 438.858 438.858s-196.482 438.858-438.858 438.858-438.858-196.482-438.858-438.858 196.482-438.858 438.858-438.858zM512 795.429c196.928 0 356.572-159.642 356.572-356.572s-159.642-356.572-356.572-356.572-356.572 159.642-356.572 356.572 159.642 356.572 356.572 356.572zM402.286 521.143c0-15.149-12.281-27.428-27.428-27.428s-27.428 12.281-27.428 27.428c0 15.149 12.281 27.428 27.428 27.428s27.428-12.281 27.428-27.428zM374.858 603.429c45.446 0 82.286-36.84 82.286-82.286s-36.84-82.286-82.286-82.286-82.286 36.84-82.286 82.286 36.84 82.286 82.286 82.286zM374.858 658.285c-75.62 0-137.142-61.522-137.142-137.142s61.522-137.142 137.142-137.142 137.142 61.522 137.142 137.142-61.522 137.142-137.142 137.142v0zM676.572 521.143c0-15.149-12.281-27.428-27.428-27.428s-27.428 12.281-27.428 27.428c0 15.149 12.281 27.428 27.428 27.428s27.428-12.281 27.428-27.428zM649.142 603.429c45.446 0 82.286-36.84 82.286-82.286s-36.84-82.286-82.286-82.286-82.286 36.84-82.286 82.286 36.84 82.286 82.286 82.286zM649.142 658.285c-75.62 0-137.142-61.522-137.142-137.142s61.522-137.142 137.142-137.142 137.142 61.522 137.142 137.142-61.522 137.142-137.142 137.142v0zM402.286 274.285h219.428v-54.858h-219.428v54.858z" />
<glyph unicode="&#xe9fb;" glyph-name="assessment-fail" d="M512-0.001c242.374 0 438.858 196.482 438.858 438.858s-196.482 438.858-438.858 438.858-438.858-196.482-438.858-438.858 196.482-438.858 438.858-438.858zM512 795.429c196.928 0 356.572-159.642 356.572-356.572s-159.642-356.572-356.572-356.572-356.572 159.642-356.572 356.572 159.642 356.572 356.572 356.572zM712.348 362.039l19.276-65.808-374.578-109.716-19.276 65.808zM292.572 603.429c0 30.296 24.56 54.858 54.858 54.858s54.858-24.56 54.858-54.858c0-30.296-24.56-54.858-54.858-54.858s-54.858 24.56-54.858 54.858zM621.714 603.429c0 30.296 24.56 54.858 54.858 54.858s54.858-24.56 54.858-54.858c0-30.296-24.56-54.858-54.858-54.858s-54.858 24.56-54.858 54.858z" />
<glyph unicode="&#xea08;" glyph-name="notification" d="M512 795.421c-95.241 0-184.783-37.089-252.128-104.436s-104.436-156.886-104.436-252.128c0-95.241 37.089-184.783 104.436-252.128s156.886-104.436 252.128-104.436c95.241 0 184.783 37.089 252.128 104.436s104.436 156.886 104.436 252.128c0 95.241-37.089 184.783-104.436 252.128s-156.886 104.436-252.128 104.436zM512 877.704v0c242.37 0 438.847-196.479 438.847-438.847s-196.479-438.847-438.847-438.847c-242.37 0-438.847 196.479-438.847 438.847s196.479 438.847 438.847 438.847zM457.144 274.29h109.712v-109.712h-109.712zM457.144 713.137h109.712v-329.136h-109.712z" />
<glyph unicode="&#xea0e;" glyph-name="blocked" d="M822.32 749.177c-82.89 82.888-193.098 128.538-310.32 128.538s-227.43-45.65-310.32-128.538c-82.888-82.89-128.538-193.098-128.538-310.32s45.65-227.43 128.538-310.32c82.89-82.888 193.098-128.538 310.32-128.538s227.43 45.65 310.32 128.538c82.888 82.89 128.538 193.098 128.538 310.32s-45.65 227.43-128.538 310.32zM841.142 438.857c0-70.984-22.59-136.79-60.954-190.612l-458.8 458.802c53.822 38.364 119.626 60.954 190.61 60.954 181.49 0 329.142-147.654 329.142-329.142zM182.858 438.857c0 70.984 22.59 136.788 60.954 190.61l458.802-458.802c-53.824-38.362-119.63-60.952-190.614-60.952-181.49 0-329.142 147.654-329.142 329.142z" />
<glyph unicode="&#xea27;" glyph-name="volume-medium" d="M768.711 145.41c-11.283 0-22.561 4.303-31.171 12.909-17.214 17.214-17.214 45.125 0 62.341 120.312 120.312 120.312 316.076 0 436.388-17.214 17.216-17.214 45.127 0 62.341 17.214 17.212 45.127 17.214 62.341 0 74.934-74.93 116.202-174.559 116.202-280.531s-41.268-205.601-116.202-280.535c-8.607-8.609-19.888-12.912-31.17-12.912v0zM612.12 228.532c-11.283 0-22.561 4.303-31.171 12.91-17.216 17.216-17.216 45.123 0 62.339 74.48 74.48 74.48 195.666 0 270.144-17.216 17.216-17.216 45.127 0 62.341s45.125 17.214 62.341 0c108.855-108.855 108.855-285.974 0-394.828-8.607-8.603-19.888-12.907-31.17-12.907zM489.964 27.427c-7.648 0-15.164 2.985-20.786 8.609l-226.494 226.494h-105.379c-16.229 0-29.388 13.157-29.388 29.388v293.879c0 16.229 13.158 29.388 29.388 29.388h105.379l226.494 226.496c8.407 8.407 21.045 10.919 32.027 6.37s18.142-15.265 18.142-27.151v-764.085c0-11.887-7.16-22.603-18.142-27.151-3.635-1.506-7.455-2.237-11.241-2.237z" />
<glyph unicode="&#xf007;" glyph-name="user" d="M877.714 151.428c0-83.429-54.857-151.429-121.714-151.429h-488c-66.857 0-121.714 68-121.714 151.429 0 150.286 37.143 324 186.857 324 46.286-45.143 109.143-73.143 178.857-73.143s132.571 28 178.857 73.143c149.714 0 186.857-173.714 186.857-324zM731.428 658.286c0-121.143-98.286-219.429-219.429-219.429s-219.429 98.286-219.429 219.429 98.286 219.429 219.429 219.429 219.429-98.286 219.429-219.429z" />
<glyph unicode="&#xf014;" glyph-name="trash" d="M402.287 530.284v-329.143c0-10.286-8-18.286-18.286-18.286h-36.571c-10.286 0-18.286 8-18.286 18.286v329.143c0 10.286 8 18.286 18.286 18.286h36.571c10.286 0 18.286-8 18.286-18.286zM548.573 530.284v-329.143c0-10.286-8-18.286-18.286-18.286h-36.571c-10.286 0-18.286 8-18.286 18.286v329.143c0 10.286 8 18.286 18.286 18.286h36.571c10.286 0 18.286-8 18.286-18.286zM694.859 530.284v-329.143c0-10.286-8-18.286-18.286-18.286h-36.571c-10.286 0-18.286 8-18.286 18.286v329.143c0 10.286 8 18.286 18.286 18.286h36.571c10.286 0 18.286-8 18.286-18.286zM768.002 116.569v541.714h-512v-541.714c0-27.429 15.429-43.429 18.286-43.429h475.429c2.857 0 18.286 16 18.286 43.429zM384.002 731.426h256l-27.429 66.857c-1.714 2.286-6.857 5.714-9.714 6.286h-181.143c-3.429-0.571-8-4-9.714-6.286zM914.287 713.141v-36.571c0-10.286-8-18.286-18.286-18.286h-54.857v-541.714c0-62.857-41.143-116.571-91.429-116.571h-475.429c-50.286 0-91.429 51.429-91.429 114.286v544h-54.857c-10.286 0-18.286 8-18.286 18.286v36.571c0 10.286 8 18.286 18.286 18.286h176.571l40 95.429c11.429 28 45.714 50.857 76 50.857h182.857c30.286 0 64.571-22.857 76-50.857l40-95.429h176.571c10.286 0 18.286-8 18.286-18.286z" />
<glyph unicode="&#xf019;" glyph-name="download" d="M766.36 111.824q0 14.762-10.787 25.549t-25.549 10.787-25.549-10.787-10.787-25.549 10.787-25.549 25.549-10.787 25.549 10.787 10.787 25.549zM911.707 111.824q0 14.762-10.787 25.549t-25.549 10.787-25.549-10.787-10.787-25.549 10.787-25.549 25.549-10.787 25.549 10.787 10.787 25.549zM984.382 239.004v-181.685q0-22.711-15.898-38.608t-38.608-15.898h-835.751q-22.711 0-38.608 15.898t-15.898 38.608v181.685q0 22.711 15.898 38.608t38.608 15.898h264.010l76.648-77.215q32.93-31.795 77.215-31.795t77.215 31.795l77.215 77.215h263.443q22.711 0 38.608-15.898t15.898-38.608zM799.857 562.064q9.652-23.279-7.948-39.744l-254.359-254.359q-10.221-10.787-25.549-10.787t-25.549 10.787l-254.359 254.359q-17.6 16.465-7.948 39.744 9.652 22.144 33.498 22.144h145.348v254.359q0 14.762 10.787 25.549t25.549 10.787h145.348q14.762 0 25.549-10.787t10.787-25.549v-254.359h145.348q23.846 0 33.498-22.144z" />
<glyph unicode="&#xf02d;" glyph-name="book" d="M973.185 677.713c14.286-20.571 18.286-47.429 10.286-73.714l-157.143-517.714c-14.286-48.571-64.571-86.286-113.714-86.286h-527.429c-58.286 0-120.571 46.286-141.714 105.714-9.143 25.714-9.143 50.857-1.143 72.571 1.143 11.429 3.429 22.857 4 36.571 0.571 9.143-4.571 16.571-3.429 23.429 2.286 13.714 14.286 23.429 23.429 38.857 17.143 28.571 36.571 74.857 42.857 104.571 2.857 10.857-2.857 23.429 0 33.143 2.857 10.857 13.714 18.857 19.429 29.143 15.429 26.286 35.429 77.143 38.286 104 1.143 12-4.571 25.143-1.143 34.286 4 13.143 16.571 18.857 25.143 30.286 13.714 18.857 36.571 73.143 40 103.429 1.143 9.714-4.571 19.429-2.857 29.714 2.286 10.857 16 22.286 25.143 35.429 24 35.429 28.571 113.714 101.143 93.143l-0.571-1.714c9.714 2.286 19.429 5.143 29.143 5.143h434.857c26.857 0 50.857-12 65.143-32 14.857-20.571 18.286-47.429 10.286-74.286l-156.571-517.714c-26.857-88-41.714-107.429-114.286-107.429h-496.571c-7.429 0-16.571-1.714-21.714-8.571-4.571-6.857-5.143-12-0.571-24.571 11.429-33.143 50.857-40 82.286-40h527.429c21.143 0 45.714 12 52 32.571l171.429 564c3.429 10.857 3.429 22.286 2.857 32.571 13.143-5.143 25.143-13.143 33.714-24.571zM365.185 676.57c-3.429-10.286 2.286-18.286 12.571-18.286h347.429c9.714 0 20.571 8 24 18.286l12 36.571c3.429 10.286-2.286 18.286-12.571 18.286h-347.429c-9.714 0-20.571-8-24-18.286zM317.757 530.285c-3.429-10.286 2.286-18.286 12.571-18.286h347.429c9.714 0 20.571 8 24 18.286l12 36.571c3.429 10.286-2.286 18.286-12.571 18.286h-347.429c-9.714 0-20.571-8-24-18.286z" />
<glyph unicode="&#xf040;" glyph-name="pencil" d="M286.571 79.143l52 52-134.286 134.286-52-52v-61.143h73.143v-73.143h61.143zM585.428 609.428c0 7.429-5.143 12.571-12.571 12.571-3.429 0-6.857-1.143-9.714-4l-309.714-309.714c-2.857-2.857-4-6.286-4-9.714 0-7.429 5.143-12.571 12.571-12.571 3.429 0 6.857 1.143 9.714 4l309.714 309.714c2.857 2.857 4 6.286 4 9.714zM554.571 719.143l237.714-237.714-475.429-475.429h-237.714v237.714zM944.856 664.286c0-19.429-8-38.286-21.143-51.429l-94.857-94.857-237.714 237.714 94.857 94.286c13.143 13.714 32 21.714 51.429 21.714s38.286-8 52-21.714l134.286-133.714c13.143-13.714 21.143-32.571 21.143-52z" />
<glyph unicode="&#xf041;" glyph-name="location" d="M658.288 585.143c0 80.572-65.714 146.286-146.286 146.286s-146.286-65.714-146.286-146.286 65.714-146.286 146.286-146.286 146.286 65.714 146.286 146.286zM804.572 585.143c0-34.856-4-70.858-18.858-102.286l-208.002-442.287c-11.999-25.142-38.286-40.571-65.714-40.571s-53.716 15.428-65.142 40.571l-208.572 442.287c-14.856 31.429-18.858 67.431-18.858 102.286 0 161.714 130.856 292.57 292.57 292.57s292.57-130.856 292.57-292.57z" />
<glyph unicode="&#xf049;" glyph-name="key" d="M714.805 877.294c-149.009 0-269.775-120.766-269.775-269.775 0-20.655 2.319-40.677 6.744-59.961l-412.355-412.25v-67.443l67.443-67.443h134.888l67.443 67.443v67.443h67.443v67.443h67.443v67.443h134.888l74.61 74.61c19.706-4.531 40.15-6.955 61.226-6.955 149.009 0 269.775 120.766 269.775 269.775s-120.872 269.67-269.775 269.67zM444.082 405.082l-337.218-337.218v67.443l337.218 337.218v-67.443zM781.301 607.414c-37.199 0-67.443 30.244-67.443 67.443s30.244 67.443 67.443 67.443 67.443-30.244 67.443-67.443c0-37.199-30.244-67.443-67.443-67.443z" />
<glyph unicode="&#xf07b;" glyph-name="folder" d="M987.429 566.857v-402.286c0-70.286-57.714-128-128-128h-694.857c-70.286 0-128 57.714-128 128v548.571c0 70.286 57.714 128 128 128h182.857c70.286 0 128-57.714 128-128v-18.286h384c70.286 0 128-57.714 128-128z" />
<glyph unicode="&#xf08b;" glyph-name="sign-out" d="M429.714 128c0-16 7.429-54.857-18.286-54.857h-182.857c-90.857 0-164.571 73.714-164.571 164.571v402.286c0 90.857 73.714 164.571 164.571 164.571h182.857c9.714 0 18.286-8.571 18.286-18.286 0-16 7.429-54.857-18.286-54.857h-182.857c-50.286 0-91.429-41.143-91.429-91.429v-402.286c0-50.286 41.143-91.429 91.429-91.429h164.571c14.286 0 36.571 2.857 36.571-18.286zM960 438.857c0-9.714-4-18.857-10.857-25.714l-310.857-310.857c-6.857-6.857-16-10.857-25.714-10.857-20 0-36.571 16.571-36.571 36.571v164.571h-256c-20 0-36.571 16.571-36.571 36.571v219.429c0 20 16.571 36.571 36.571 36.571h256v164.571c0 20 16.571 36.571 36.571 36.571 9.714 0 18.857-4 25.714-10.857l310.857-310.857c6.857-6.857 10.857-16 10.857-25.714z" />
<glyph unicode="&#xf08e;" glyph-name="external-link" d="M804.56 347.423v-182.857c0-90.857-73.714-164.571-164.571-164.571h-475.429c-90.857 0-164.571 73.714-164.571 164.571v475.429c0 90.857 73.714 164.571 164.571 164.571h402.286c10.286 0 18.286-8 18.286-18.286v-36.571c0-10.286-8-18.286-18.286-18.286h-402.286c-50.286 0-91.429-41.143-91.429-91.429v-475.429c0-50.286 41.143-91.429 91.429-91.429h475.429c50.286 0 91.429 41.143 91.429 91.429v182.857c0 10.286 8 18.286 18.286 18.286h36.571c10.286 0 18.286-8 18.286-18.286zM1023.989 841.138v-292.571c0-20-16.571-36.571-36.571-36.571-9.714 0-18.857 4-25.714 10.857l-100.571 100.571-372.571-372.571c-3.429-3.429-8.571-5.714-13.143-5.714s-9.714 2.286-13.143 5.714l-65.143 65.143c-3.429 3.429-5.714 8.571-5.714 13.143s2.286 9.714 5.714 13.143l372.571 372.571-100.571 100.571c-6.857 6.857-10.857 16-10.857 25.714 0 20 16.571 36.571 36.571 36.571h292.571c20 0 36.571-16.571 36.571-36.571z" />
<glyph unicode="&#xf090;" glyph-name="sign-in" horiz-adv-x="878" d="M676.571 438.857c0-9.714-4-18.857-10.857-25.714l-310.857-310.857c-6.857-6.857-16-10.857-25.714-10.857-20 0-36.571 16.571-36.571 36.571v164.571h-256c-20 0-36.571 16.571-36.571 36.571v219.429c0 20 16.571 36.571 36.571 36.571h256v164.571c0 20 16.571 36.571 36.571 36.571 9.714 0 18.857-4 25.714-10.857l310.857-310.857c6.857-6.857 10.857-16 10.857-25.714zM877.714 640v-402.286c0-90.857-73.714-164.571-164.571-164.571h-182.857c-9.714 0-18.286 8.571-18.286 18.286 0 16-7.429 54.857 18.286 54.857h182.857c50.286 0 91.429 41.143 91.429 91.429v402.286c0 50.286-41.143 91.429-91.429 91.429h-164.571c-14.286 0-36.571-2.857-36.571 18.286 0 16-7.429 54.857 18.286 54.857h182.857c90.857 0 164.571-73.714 164.571-164.571z" />
<glyph unicode="&#xf095;" glyph-name="phone" d="M950.854 184.522c0-22.442-9.973-66.078-19.324-86.649-13.091-30.545-48-50.493-76.050-66.078-36.778-19.95-74.18-31.793-115.949-31.793-57.973 0-110.336 23.687-163.323 43.014-38.026 13.713-74.804 30.545-109.091 51.741-105.973 65.454-233.765 193.247-299.22 299.22-21.195 34.286-38.026 71.065-51.741 109.091-19.324 52.986-43.014 105.35-43.014 163.323 0 41.766 11.843 79.17 31.793 115.949 15.585 28.050 35.533 62.961 66.078 76.050 20.572 9.35 64.206 19.324 86.649 19.324 4.363 0 8.728 0 13.091-1.87 13.091-4.363 26.805-34.908 33.038-47.378 19.95-35.533 39.271-71.687 59.843-106.598 9.973-16.207 28.676-36.156 28.676-55.48 0-38.026-112.83-93.506-112.83-127.169 0-16.83 15.585-38.65 24.313-53.61 62.961-113.454 141.506-191.999 254.96-254.96 14.961-8.728 36.778-24.313 53.61-24.313 33.663 0 89.142 112.83 127.169 112.83 19.324 0 39.271-18.702 55.48-28.676 34.908-20.572 71.065-39.894 106.598-59.843 12.467-6.234 43.014-19.95 47.378-33.038 1.87-4.363 1.87-8.728 1.87-13.091z" />
<glyph unicode="&#xf0e0;" glyph-name="envelope-alt" d="M1024.001 581.714v-453.714c0-50.286-41.143-91.429-91.429-91.429h-841.143c-50.286 0-91.429 41.143-91.429 91.429v453.714c17.143-18.857 36.571-35.429 57.714-49.714 94.857-64.571 190.857-129.143 284-197.143 48-35.429 107.429-78.857 169.714-78.857h1.143c62.286 0 121.714 43.429 169.714 78.857 93.143 67.429 189.143 132.571 284.571 197.143 20.571 14.286 40 30.857 57.143 49.714zM1024.001 749.714c0-64-47.429-121.714-97.714-156.571-89.143-61.714-178.857-123.429-267.429-185.714-37.143-25.714-100-78.286-146.286-78.286h-1.143c-46.286 0-109.143 52.571-146.286 78.286-88.571 62.286-178.286 124-266.857 185.714-40.571 27.429-98.286 92-98.286 144 0 56 30.286 104 91.429 104h841.143c49.714 0 91.429-41.143 91.429-91.429z" />
<glyph unicode="&#xf0eb;" glyph-name="lightbulb" horiz-adv-x="585" d="M420.571 621.714c0-9.714-8.571-18.286-18.286-18.286s-18.286 8.571-18.286 18.286c0 39.429-61.143 54.857-91.429 54.857-9.714 0-18.286 8.571-18.286 18.286s8.571 18.286 18.286 18.286c53.143 0 128-28 128-91.429zM512 621.714c0 114.286-116 182.857-219.429 182.857s-219.429-68.571-219.429-182.857c0-36.571 14.857-74.857 38.857-102.857 10.857-12.571 23.429-24.571 34.857-37.714 40.571-48.571 74.857-105.714 80.571-170.286h130.286c5.714 64.571 40 121.714 80.571 170.286 11.429 13.143 24 25.143 34.857 37.714 24 28 38.857 66.286 38.857 102.857zM585.143 621.714c0-58.857-19.429-109.714-58.857-153.143s-91.429-104.571-96-165.714c16.571-9.714 26.857-28 26.857-46.857 0-13.714-5.143-26.857-14.286-36.571 9.143-9.714 14.286-22.857 14.286-36.571 0-18.857-9.714-36-25.714-46.286 4.571-8 7.429-17.714 7.429-26.857 0-37.143-29.143-54.857-62.286-54.857-14.857-33.143-48-54.857-84-54.857s-69.143 21.714-84 54.857c-33.143 0-62.286 17.714-62.286 54.857 0 9.143 2.857 18.857 7.429 26.857-16 10.286-25.714 27.429-25.714 46.286 0 13.714 5.143 26.857 14.286 36.571-9.143 9.714-14.286 22.857-14.286 36.571 0 18.857 10.286 37.143 26.857 46.857-4.571 61.143-56.571 122.286-96 165.714s-58.857 94.286-58.857 153.143c0 155.429 148 256 292.571 256s292.571-100.571 292.571-256z" />
<glyph unicode="&#xf104;" glyph-name="arrow-left" d="M767.925 804.713c0-7.036-3.519-14.95-8.795-20.227l-345.63-345.63 345.63-345.63c5.277-5.277 8.795-13.191 8.795-20.227s-3.519-14.95-8.795-20.227l-43.973-43.973c-5.277-5.277-13.191-8.795-20.227-8.795s-14.95 3.519-20.227 8.795l-409.834 409.834c-5.277 5.277-8.795 13.191-8.795 20.227s3.519 14.95 8.795 20.227l409.834 409.834c5.277 5.277 13.191 8.795 20.227 8.795s14.95-3.519 20.227-8.795l43.973-43.973c5.277-5.277 8.795-12.313 8.795-20.227z" />
<glyph unicode="&#xf105;" glyph-name="arrow-right" d="M767.928 438.86c0-7.035-3.519-14.951-8.794-20.227l-409.839-409.839c-5.277-5.277-13.192-8.794-20.227-8.794s-14.951 3.519-20.227 8.794l-43.973 43.973c-5.277 5.277-8.794 12.312-8.794 20.227 0 7.035 3.519 14.951 8.794 20.227l345.634 345.634-345.634 345.634c-5.277 5.277-8.794 13.192-8.794 20.227s3.519 14.951 8.794 20.227l43.973 43.973c5.277 5.277 13.192 8.794 20.227 8.794s14.951-3.519 20.227-8.794l409.839-409.839c5.277-5.277 8.794-13.192 8.794-20.227z" />
<glyph unicode="&#xf106;" glyph-name="arrow-up" d="M1023.997 225.437c0-8.207-4.105-17.442-10.26-23.599l-51.302-51.302c-6.157-6.157-14.364-10.26-23.599-10.26-8.207 0-17.442 4.105-23.599 10.26l-403.238 403.238-403.238-403.238c-6.157-6.157-15.391-10.26-23.599-10.26s-17.442 4.105-23.599 10.26l-51.302 51.302c-6.157 6.157-10.26 15.391-10.26 23.599s4.105 17.442 10.26 23.599l478.14 478.14c6.157 6.157 15.391 10.26 23.599 10.26s17.442-4.105 23.599-10.26l478.14-478.14c6.157-6.157 10.26-15.391 10.26-23.599z" />
<glyph unicode="&#xf107;" glyph-name="arrow-down" d="M1024 652.275c0-8.207-4.105-17.442-10.26-23.599l-478.14-478.14c-6.157-6.157-15.391-10.26-23.599-10.26s-17.442 4.105-23.599 10.26l-478.14 478.14c-6.157 6.157-10.26 15.391-10.26 23.599s4.105 17.442 10.26 23.599l51.302 51.302c6.157 6.157 14.364 10.26 23.599 10.26 8.207 0 17.442-4.105 23.599-10.26l403.237-403.237 403.237 403.237c6.157 6.157 15.391 10.26 23.599 10.26s17.442-4.105 23.599-10.26l51.302-51.302c6.157-6.157 10.26-15.391 10.26-23.599z" />
<glyph unicode="&#xf10d;" glyph-name="quote-left" horiz-adv-x="951" d="M438.857 402.286v-219.429c0-60.571-49.143-109.714-109.714-109.714h-219.429c-60.571 0-109.714 49.143-109.714 109.714v402.286c0 161.143 131.429 292.571 292.571 292.571h36.571c20 0 36.571-16.571 36.571-36.571v-73.143c0-20-16.571-36.571-36.571-36.571h-36.571c-80.571 0-146.286-65.714-146.286-146.286v-18.286c0-30.286 24.571-54.857 54.857-54.857h128c60.571 0 109.714-49.143 109.714-109.714zM950.857 402.286v-219.429c0-60.571-49.143-109.714-109.714-109.714h-219.429c-60.571 0-109.714 49.143-109.714 109.714v402.286c0 161.143 131.429 292.571 292.571 292.571h36.571c20 0 36.571-16.571 36.571-36.571v-73.143c0-20-16.571-36.571-36.571-36.571h-36.571c-80.571 0-146.286-65.714-146.286-146.286v-18.286c0-30.286 24.571-54.857 54.857-54.857h128c60.571 0 109.714-49.143 109.714-109.714z" />
<glyph unicode="&#xf10e;" glyph-name="quote-right" horiz-adv-x="951" d="M438.857 768v-402.286c0-161.143-131.429-292.571-292.571-292.571h-36.571c-20 0-36.571 16.571-36.571 36.571v73.143c0 20 16.571 36.571 36.571 36.571h36.571c80.571 0 146.286 65.714 146.286 146.286v18.286c0 30.286-24.571 54.857-54.857 54.857h-128c-60.571 0-109.714 49.143-109.714 109.714v219.429c0 60.571 49.143 109.714 109.714 109.714h219.429c60.571 0 109.714-49.143 109.714-109.714zM950.857 768v-402.286c0-161.143-131.429-292.571-292.571-292.571h-36.571c-20 0-36.571 16.571-36.571 36.571v73.143c0 20 16.571 36.571 36.571 36.571h36.571c80.571 0 146.286 65.714 146.286 146.286v18.286c0 30.286-24.571 54.857-54.857 54.857h-128c-60.571 0-109.714 49.143-109.714 109.714v219.429c0 60.571 49.143 109.714 109.714 109.714h219.429c60.571 0 109.714-49.143 109.714-109.714z" />
<glyph unicode="&#xf12a;" glyph-name="exclamation" horiz-adv-x="366" d="M302.543 179.537v-139.636c0-21.818-18.077-39.896-39.896-39.896h-159.584c-21.818 0-39.896 18.077-39.896 39.896v139.636c0 21.818 18.077 39.896 39.896 39.896h159.584c21.818 0 39.896-18.077 39.896-39.896zM321.244 837.821l-17.455-478.752c-0.623-21.818-19.324-39.896-41.142-39.896h-159.584c-21.818 0-40.52 18.077-41.142 39.896l-17.455 478.752c-0.623 21.818 16.832 39.896 38.65 39.896h199.48c21.818 0 39.273-18.077 38.65-39.896z" />
<glyph unicode="&#xf164;" glyph-name="thumb-up" d="M189.744 173.472q0 15.402-11.255 26.657t-26.657 11.255q-15.994 0-26.953-11.255t-10.959-26.657q0-15.994 10.959-26.953t26.953-10.959q15.402 0 26.657 10.959t11.255 26.953zM284.524 476.771v-379.124q0-15.402-11.255-26.657t-26.657-11.255h-170.606q-15.402 0-26.657 11.255t-11.255 26.657v379.124q0 15.402 11.255 26.657t26.657 11.255h170.606q15.402 0 26.657-11.255t11.255-26.657zM985.904 476.771q0-50.945-32.582-88.265 8.886-26.065 8.886-45.022 1.777-45.022-25.472-81.156 10.071-33.173 0-69.309-8.886-33.766-31.989-55.684 5.33-66.347-29.027-107.222-37.912-45.022-116.699-46.206h-76.417q-39.097 0-85.303 9.182t-71.975 17.179-71.382 23.399q-72.863 25.472-93.596 26.065-15.402 0.592-26.657 11.55t-11.255 26.362v379.717q0 14.809 10.663 25.769t25.472 12.144q14.217 1.185 45.022 34.951t59.831 71.678q40.282 51.537 59.831 71.086 10.663 10.663 18.364 28.435t10.367 28.731 7.997 35.839q4.147 23.103 7.405 36.135t11.55 30.804 20.141 29.619q11.255 11.255 26.657 11.255 27.249 0 48.87-6.22t35.543-15.402 23.695-23.99 14.217-26.657 7.11-29.619 2.962-26.657 0.296-23.103q0-22.511-5.628-45.022t-11.255-35.543-16.291-33.173q-1.777-3.554-5.924-10.663t-6.516-13.032-4.739-14.217h164.091q46.206 0 79.97-33.766t33.766-79.97z" />
<glyph unicode="&#xf165;" glyph-name="thumb-down" d="M189.744 704.243q0-15.402-11.255-26.657t-26.657-11.255q-15.994 0-26.953 11.255t-10.959 26.657q0 15.994 10.959 26.953t26.953 10.959q15.402 0 26.657-10.959t11.255-26.953zM284.524 400.944v379.124q0 15.402-11.255 26.657t-26.657 11.255h-170.606q-15.402 0-26.657-11.255t-11.255-26.657v-379.124q0-15.402 11.255-26.657t26.657-11.255h170.606q15.402 0 26.657 11.255t11.255 26.657zM953.323 489.209q32.582-36.135 32.582-88.265-0.592-46.206-34.062-79.971t-79.675-33.766h-164.090q2.37-8.293 4.739-14.217t6.516-13.032 5.924-10.663q10.663-21.918 15.994-33.766t11.255-34.655 5.924-45.317q0-14.217-0.296-23.103t-2.962-26.657-7.109-29.619-14.217-26.657-23.695-23.991-35.543-15.402-48.871-6.22q-15.402 0-26.657 11.255-11.848 11.848-20.141 29.619t-11.551 30.804-7.405 36.135q-5.331 24.88-7.997 35.839t-10.367 28.73-18.364 28.435q-19.549 19.549-59.83 71.086-29.027 37.912-59.83 71.678t-45.022 34.95q-14.81 1.185-25.472 12.144t-10.663 25.769v379.717q0 15.402 11.255 26.362t26.657 11.551q20.733 0.592 93.596 26.065 45.613 15.402 71.382 23.399t71.975 17.179 85.303 9.182h76.417q78.787-1.185 116.699-46.206 34.358-40.875 29.027-107.222 23.103-21.918 31.989-55.684 10.070-36.135 0-69.309 27.25-36.135 25.472-81.156 0-18.956-8.886-45.022z" />
<glyph unicode="&#xf175;" glyph-name="long-arrow-down" horiz-adv-x="439" d="M404.886 227.112c2.433-5.841 1.46-12.17-2.433-17.038l-170.371-186.921c-2.921-2.921-6.814-4.868-11.196-4.868v0c-4.381 0-8.762 1.948-11.682 4.868l-172.805 186.921c-3.893 4.868-4.868 11.196-2.433 17.038 2.433 5.354 7.789 9.249 14.117 9.249h109.038v607.495c0 8.762 6.814 15.577 15.577 15.577h93.46c8.762 0 15.577-6.814 15.577-15.577v-607.495h109.038c6.329 0 11.682-3.408 14.117-9.249z" />
<glyph unicode="&#xf176;" glyph-name="long-arrow-up" horiz-adv-x="439" d="M404.886 650.61c-2.433-5.354-7.789-9.249-14.116-9.249h-109.038v-607.495c0-8.762-6.813-15.578-15.578-15.578h-93.46c-8.762 0-15.578 6.813-15.578 15.578v607.495h-109.038c-6.329 0-11.682 3.408-14.116 9.249s-1.46 12.17 2.433 17.037l170.373 186.922c2.921 2.921 6.813 4.868 11.195 4.868v0c4.381 0 8.762-1.948 11.682-4.868l172.805-186.922c3.892-4.868 4.868-11.195 2.433-17.037z" />
<glyph unicode="&#xf1cd;" glyph-name="support" d="M512 877.715c242.449 0 438.858-196.409 438.858-438.858s-196.409-438.858-438.858-438.858-438.858 196.409-438.858 438.858 196.409 438.858 438.858 438.858zM512 815.020c-63.674 0-123.918-16.163-176.816-44.082l95.021-95.021c25.96 8.816 53.388 13.714 81.797 13.714 28.898 0 55.837-4.898 81.797-13.714l95.021 95.021c-52.898 27.918-113.142 44.082-176.816 44.082zM179.918 262.041l95.021 95.021c-8.816 25.96-13.714 53.388-13.714 81.797 0 28.898 4.898 55.837 13.714 81.797l-95.021 95.021c-27.918-52.898-44.082-113.142-44.082-176.816s16.163-123.918 44.082-176.816zM512 62.694c63.674 0 123.918 16.163 176.816 44.082l-95.021 95.021c-25.96-8.816-52.898-13.714-81.797-13.714-28.409 0-55.837 4.898-81.797 13.714l-95.021-95.021c52.898-27.918 113.142-44.082 176.816-44.082zM512 250.775c103.837 0 188.082 84.246 188.082 188.082s-84.246 188.082-188.082 188.082-188.082-84.246-188.082-188.082 84.246-188.082 188.082-188.082zM749.061 357.060l95.021-95.021c27.918 52.898 44.082 113.142 44.082 176.816s-16.163 123.918-44.082 176.816l-95.021-95.021c8.816-25.96 13.714-53.388 13.714-81.797s-4.898-55.837-13.714-81.797z" />
<glyph unicode="&#xf1d9;" glyph-name="paper-plane" d="M972.621 908.367c11.142-7.959 16.448-20.691 14.326-33.956l-135.825-814.95c-1.593-10.081-7.959-18.57-16.978-23.875-4.776-2.653-10.613-4.245-16.448-4.245-4.245 0-8.489 1.060-12.734 2.653l-279.609 114.071-158.11-173.494c-6.366-7.429-15.386-11.142-24.937-11.142-4.245 0-8.489 0.529-12.202 2.123-13.266 5.306-21.755 18.039-21.755 31.833v239.817l-250.425 102.399c-12.202 4.776-20.161 15.918-21.223 29.181-1.060 12.734 5.836 24.937 16.978 31.303l882.862 509.343c11.142 6.896 25.468 6.366 36.079-1.060zM791.167 113.048l117.254 701.939-760.832-438.778 178.27-72.689 457.88 339.033-253.611-422.861z" />
<glyph unicode="&#xf1f8;" glyph-name="trash-alt" d="M402.287 164.569v402.286c0 10.286-8 18.286-18.286 18.286h-36.571c-10.286 0-18.286-8-18.286-18.286v-402.286c0-10.286 8-18.286 18.286-18.286h36.571c10.286 0 18.286 8 18.286 18.286zM548.573 164.569v402.286c0 10.286-8 18.286-18.286 18.286h-36.571c-10.286 0-18.286-8-18.286-18.286v-402.286c0-10.286 8-18.286 18.286-18.286h36.571c10.286 0 18.286 8 18.286 18.286zM694.859 164.569v402.286c0 10.286-8 18.286-18.286 18.286h-36.571c-10.286 0-18.286-8-18.286-18.286v-402.286c0-10.286 8-18.286 18.286-18.286h36.571c10.286 0 18.286 8 18.286 18.286zM384.002 731.426h256l-27.429 66.857c-1.714 2.286-6.857 5.714-9.714 6.286h-181.143c-3.429-0.571-8-4-9.714-6.286zM914.287 713.141v-36.571c0-10.286-8-18.286-18.286-18.286h-54.857v-541.714c0-62.857-41.143-116.571-91.429-116.571h-475.429c-50.286 0-91.429 51.429-91.429 114.286v544h-54.857c-10.286 0-18.286 8-18.286 18.286v36.571c0 10.286 8 18.286 18.286 18.286h176.571l40 95.429c11.429 28 45.714 50.857 76 50.857h182.857c30.286 0 64.571-22.857 76-50.857l40-95.429h176.571c10.286 0 18.286-8 18.286-18.286z" />
<glyph unicode="&#xf212;" glyph-name="leanpub" horiz-adv-x="1170" d="M1081.714 726.857l88.571-726.857c-53.143 0-98.857 10.857-146.857 32.571-71.429 32.571-145.714 52-224.571 52-81.143 0-156-26.857-213.714-84.571-57.714 57.714-132.571 84.571-213.714 84.571-78.857 0-153.143-19.429-224.571-52-46.286-20.571-93.143-32.571-144-32.571h-2.857l88.571 726.857c81.714 46.286 181.143 72.571 275.429 72.571 77.143 0 156.571-16 221.143-60.571 64.571 44.571 144 60.571 221.143 60.571 94.286 0 193.714-26.286 275.429-72.571zM798.857 162.857c108.571 0 182.857-29.143 281.143-69.714l-70.857 583.429c-64 29.143-140 44.571-210.286 44.571-80 0-154.857-25.143-213.714-80.571-58.857 55.429-133.714 80.571-213.714 80.571-70.286 0-146.286-15.429-210.286-44.571l-70.857-583.429c98.286 40.571 172.571 69.714 281.143 69.714 78.286 0 147.429-20 213.714-61.714 66.286 41.714 135.429 61.714 213.714 61.714zM821.714 182.286l-31.429 518.286c-82.286-1.714-147.429-29.714-205.143-88.571-60 61.143-128 88.571-213.714 88.571-64 0-132.571-13.143-192-37.714l-65.143-537.714c86.286 35.429 162.286 57.714 257.143 57.714 75.429 0 149.143-18.286 213.714-58.286 64.571 40 138.286 60 213.714 58.286z" />
<glyph unicode="&#xf2b7;" glyph-name="envelope-open" d="M842.287 429.144l22.286-29.143c6.286-8 4.571-18.857-2.857-25.143-57.143-44.571-188.571-145.714-194.286-150.286-40.571-33.143-95.429-78.857-154.857-78.286h-1.143c-59.429 0-114.286 45.143-154.857 78.286-6.286 5.143-133.143 102.857-189.143 146.286-8 6.286-9.714 17.143-3.429 25.143l21.143 29.714c6.286 8.571 18.286 10.286 26.286 3.429 38.857-30.286 93.714-72.571 174.857-134.857 28.571-21.714 85.143-74.857 125.143-74.857h1.143c40 0 96.571 53.143 125.143 74.857 84 64.571 140 107.429 178.857 138.286 8 6.286 19.429 4.571 25.714-3.429zM950.858 18.287v530.286c-57.143 53.143-48.571 48.571-313.143 253.143-28.571 22.286-85.143 76-125.143 76h-1.143c-40 0-96.571-53.714-125.143-76-264.571-204.571-256-200-313.143-253.143v-530.286c0-9.714 8.571-18.286 18.286-18.286h841.143c9.714 0 18.286 8.571 18.286 18.286zM1024.001 548.572v-530.286c0-50.286-41.143-91.429-91.429-91.429h-841.143c-50.286 0-91.429 41.143-91.429 91.429v530.286c0 20.571 8.571 40 23.429 53.714 117.143 108.571 252 202.857 333.143 269.714 40 33.143 95.429 78.857 154.857 78.857h1.143c59.429 0 114.857-45.714 154.857-78.857 75.429-62.286 218.857-163.429 333.143-269.714 14.857-13.714 23.429-33.143 23.429-53.714z" />
</font>
</defs>
</svg>
